<?xml version="1.0" encoding="UTF-8"?>
<svg id="Layer_1" data-name="Layer 1" xmlns="http://www.w3.org/2000/svg" xmlns:xlink="http://www.w3.org/1999/xlink" viewBox="0 0 304.64 81.12">
  <defs>
    <style>
      .cls-1 {
        fill: url(#radial-gradient-10);
      }

      .cls-2 {
        fill: #f97312;
      }

      .cls-3 {
        fill: #fd8006;
      }

      .cls-4 {
        fill: #fd7f07;
      }

      .cls-5 {
        fill: #fe8303;
      }

      .cls-6 {
        fill: #f36122;
      }

      .cls-7 {
        fill: #fb790c;
      }

      .cls-8 {
        fill: #f15b28;
      }

      .cls-9 {
        fill: #fc7d09;
      }

      .cls-10 {
        fill: url(#radial-gradient-9);
      }

      .cls-11 {
        fill: #f76b19;
      }

      .cls-12 {
        fill: #f25e25;
      }

      .cls-13 {
        fill: url(#radial-gradient-14);
      }

      .cls-14 {
        fill: url(#radial-gradient-16);
      }

      .cls-15 {
        fill: #f76c18;
      }

      .cls-16 {
        fill: none;
      }

      .cls-17 {
        fill: #f5651f;
      }

      .cls-18 {
        fill: url(#radial-gradient-5);
      }

      .cls-19 {
        fill: #f5661e;
      }

      .cls-20 {
        fill: url(#radial-gradient);
      }

      .cls-21 {
        fill: url(#radial-gradient-3);
      }

      .cls-22 {
        fill: #f86e16;
      }

      .cls-23 {
        fill: #fd8105;
      }

      .cls-24 {
        clip-path: url(#clippath-1);
      }

      .cls-25 {
        fill: #fa780d;
      }

      .cls-26 {
        fill: #f87114;
      }

      .cls-27 {
        fill: #f76d17;
      }

      .cls-28 {
        fill: url(#radial-gradient-11);
      }

      .cls-29 {
        fill: #f15a29;
      }

      .cls-30 {
        fill: #fa760f;
      }

      .cls-31 {
        fill: #fb7a0b;
      }

      .cls-32 {
        fill: #f6691b;
      }

      .cls-33 {
        fill: url(#radial-gradient-8);
      }

      .cls-34 {
        fill: url(#radial-gradient-2);
      }

      .cls-35 {
        fill: #f35f24;
      }

      .cls-36 {
        fill: url(#radial-gradient-4);
      }

      .cls-37 {
        fill: #fe8204;
      }

      .cls-38 {
        fill: #f25d26;
      }

      .cls-39 {
        fill: #f5671d;
      }

      .cls-40 {
        fill: url(#radial-gradient-12);
      }

      .cls-41 {
        fill: #f46320;
      }

      .cls-42 {
        fill: #fb7b0a;
      }

      .cls-43 {
        fill: #fe8402;
      }

      .cls-44 {
        fill: #ff8501;
      }

      .cls-45 {
        fill: #f86f15;
      }

      .cls-46 {
        fill: url(#radial-gradient-15);
      }

      .cls-47 {
        fill: #ff8600;
      }

      .cls-48 {
        fill: #f6681c;
      }

      .cls-49 {
        fill: #f66a1a;
      }

      .cls-50 {
        fill: #f46221;
      }

      .cls-51 {
        fill: url(#radial-gradient-6);
      }

      .cls-52 {
        fill: #fa770e;
      }

      .cls-53 {
        fill: #f25c27;
      }

      .cls-54 {
        fill: #f4641f;
      }

      .cls-55 {
        fill: url(#radial-gradient-7);
      }

      .cls-56 {
        fill: url(#radial-gradient-17);
      }

      .cls-57 {
        fill: url(#radial-gradient-13);
      }

      .cls-58 {
        fill: #f87213;
      }

      .cls-59 {
        fill: #f36023;
      }

      .cls-60 {
        fill: url(#linear-gradient);
      }

      .cls-61 {
        fill: #fc7c0a;
      }

      .cls-62 {
        clip-path: url(#clippath);
      }

      .cls-63 {
        fill: #fc7e08;
      }

      .cls-64 {
        fill: #f97510;
      }

      .cls-65 {
        fill: #f97411;
      }
    </style>
    <radialGradient id="radial-gradient" cx="30.61" cy="43.97" fx="55.99" fy="78.09" r="42.53" gradientUnits="userSpaceOnUse">
      <stop offset="0" stop-color="#27187e"/>
      <stop offset=".94" stop-color="#aeb8fe"/>
    </radialGradient>
    <radialGradient id="radial-gradient-2" cx="83.81" cy="43.63" fx="83.81" fy="43.63" r="28.2" gradientUnits="userSpaceOnUse">
      <stop offset="0" stop-color="#27187e"/>
      <stop offset="1" stop-color="#aeb8fe"/>
    </radialGradient>
    <radialGradient id="radial-gradient-3" cx="139.84" cy="35.1" fx="139.84" fy="35.1" r="32.45" xlink:href="#radial-gradient-2"/>
    <radialGradient id="radial-gradient-4" cx="230.92" cy="6.44" fx="199.43" fy="-54.01" r="68.16" gradientUnits="userSpaceOnUse">
      <stop offset="0" stop-color="#27187e"/>
      <stop offset=".73" stop-color="#aeb8fe"/>
    </radialGradient>
    <linearGradient id="linear-gradient" x1="262.44" y1="59.95" x2="298.29" y2="59.95" gradientUnits="userSpaceOnUse">
      <stop offset="0" stop-color="#f15a29"/>
      <stop offset="1" stop-color="#ffb400"/>
    </linearGradient>
    <clipPath id="clippath">
      <line class="cls-16" x1="302.12" y1="41.76" x2="294.54" y2="48.5"/>
    </clipPath>
    <radialGradient id="radial-gradient-5" cx="298.33" cy="45.13" fx="298.33" fy="45.13" r="4.99" gradientTransform="translate(105.43 -186.87) rotate(41.65)" gradientUnits="userSpaceOnUse">
      <stop offset="0" stop-color="#27187e"/>
      <stop offset=".82" stop-color="#aeb8fe"/>
    </radialGradient>
    <radialGradient id="radial-gradient-6" cx="279.62" cy="81.79" fx="279.62" fy="81.79" r="1.76" gradientTransform="translate(-6.51 -9.1) rotate(.05) scale(1 .94) skewX(-.44)" xlink:href="#radial-gradient-4"/>
    <radialGradient id="radial-gradient-7" cx="271.77" cy="-394.51" fx="271.77" fy="-394.51" r="4.23" gradientTransform="translate(0 2260.25) scale(1 5.56)" xlink:href="#radial-gradient-4"/>
    <radialGradient id="radial-gradient-8" cx="272.63" cy="-197.38" fx="272.63" fy="-197.38" r="8.08" gradientTransform="translate(0 439.39) scale(1 1.89)" xlink:href="#radial-gradient-4"/>
    <radialGradient id="radial-gradient-9" cx="274.22" cy="12.17" fx="274.22" fy="12.17" r="11.26" gradientTransform="translate(0 52.07) scale(1 1.1)" xlink:href="#radial-gradient-4"/>
    <radialGradient id="radial-gradient-10" cx="274.35" cy=".25" fx="274.35" fy=".25" r="13.02" gradientTransform="translate(.46 61.87) scale(1 1.15)" xlink:href="#radial-gradient-4"/>
    <radialGradient id="radial-gradient-11" cx="279.23" cy="48.21" fx="279.23" fy="48.21" r="14.78" gradientTransform="translate(0 12.99) scale(1 1.03)" xlink:href="#radial-gradient-4"/>
    <radialGradient id="radial-gradient-12" cx="280.08" cy="66.24" fx="280.08" fy="66.24" r="15.09" gradientTransform="translate(11.66 -6.48) scale(.97 .98)" xlink:href="#radial-gradient-4"/>
    <radialGradient id="radial-gradient-13" cx="283.28" cy="110.1" fx="283.28" fy="110.1" r="17.49" gradientTransform="translate(7.24 -39.01) scale(.97 .9)" xlink:href="#radial-gradient-4"/>
    <radialGradient id="radial-gradient-14" cx="276.1" cy="63.9" fx="276.1" fy="63.9" r="14.91" gradientTransform="translate(14.09 -6.18) scale(.97)" xlink:href="#radial-gradient-4"/>
    <radialGradient id="radial-gradient-15" cx="305.87" cy="110.45" fx="305.87" fy="110.45" r=".76" gradientTransform="translate(23.62 -110.27) rotate(12.71)" gradientUnits="userSpaceOnUse">
      <stop offset="0" stop-color="#aeb8fe"/>
      <stop offset=".73" stop-color="#aeb8fe"/>
    </radialGradient>
    <clipPath id="clippath-1">
      <line class="cls-16" x1="271.59" y1="68.16" x2="259.43" y2="78.41"/>
    </clipPath>
    <radialGradient id="radial-gradient-16" cx="245.61" cy="-624.43" fx="245.61" fy="-624.43" r="10" gradientTransform="translate(-134.78 1027.41) scale(1.6 1.52)" gradientUnits="userSpaceOnUse">
      <stop offset="0" stop-color="#aeb8fe"/>
      <stop offset=".31" stop-color="#27187e"/>
      <stop offset=".92" stop-color="#aeb8fe"/>
    </radialGradient>
    <radialGradient id="radial-gradient-17" cx="238.15" cy="96.1" fx="238.15" fy="96.1" r=".81" gradientTransform="translate(90.29 -88.76) rotate(17.95)" xlink:href="#radial-gradient-15"/>
  </defs>
  <path class="cls-20" d="M2.16,2.64h45.31v11.5H15.86v15.9h29.6v11.5H15.86v26H2.16V2.64Z"/>
  <path class="cls-34" d="M57.9,2.64h14.04v53.41h32.33l-.8,5.75-.8,5.75h-44.77V2.64Z"/>
  <path class="cls-21" d="M171.32,34.87c0,9.03-2.71,17.44-8.06,23.58-5.35,6.15-13.33,10.04-23.87,10.04s-17.94-3.7-23.16-9.73c-5.21-6.03-7.88-14.37-7.88-23.67s2.94-17.8,8.41-23.78c5.46-5.99,13.45-9.61,23.53-9.61,9.49,0,17.25,3.33,22.63,9.14,5.38,5.81,8.39,14.1,8.39,24.04ZM122.85,34.81c0,6.34,1.39,11.9,4.22,15.88,2.83,3.98,7.1,6.38,12.85,6.38,6.24,0,10.47-2.61,13.13-6.67,2.67-4.06,3.77-9.56,3.77-15.35,0-6.14-1.26-11.62-4.03-15.57-2.77-3.95-7.05-6.36-13.1-6.36s-10.07,2.26-12.82,6.11c-2.75,3.84-4.02,9.27-4.02,15.59Z"/>
  <path class="cls-36" d="M193.35,67.55l-8.26-32.46-8.26-32.46h14.97c3.04,14.91,5.25,25.68,6.8,33.6,1.55,7.93,2.43,13.02,2.81,16.59h.09c1.23-5.96,3.42-14.59,5.77-23.69,2.35-9.1,4.86-18.67,6.75-26.51h12.61c1.67,6.23,4.14,15.64,6.47,24.98s4.49,18.61,5.55,24.55h.09c1.08-7.15,3.21-17.01,5.36-26.34,2.15-9.33,4.31-18.14,5.45-23.18h13.63l-8.79,32.46-8.79,32.46h-14.54c-1.71-7.19-3.99-16.02-6.13-24.46-2.14-8.43-4.14-16.45-5.28-22.01h-.09c-1.18,5.78-3.23,14.13-5.43,22.67-2.19,8.54-4.52,17.27-6.26,23.8h-14.53Z"/>
  <g>
    <circle class="cls-60" cx="280.36" cy="59.95" r="17.92"/>
    <g>
      <g class="cls-62">
        <rect class="cls-29" x="294.54" y="41.76" width=".17" height="6.74"/>
        <rect class="cls-8" x="294.72" y="41.76" width=".17" height="6.74"/>
        <rect class="cls-53" x="294.89" y="41.76" width=".17" height="6.74"/>
        <rect class="cls-38" x="295.06" y="41.76" width=".17" height="6.74"/>
        <rect class="cls-12" x="295.23" y="41.76" width=".17" height="6.74"/>
        <rect class="cls-35" x="295.41" y="41.76" width=".17" height="6.74"/>
        <rect class="cls-59" x="295.58" y="41.76" width=".17" height="6.74"/>
        <rect class="cls-6" x="295.75" y="41.76" width=".17" height="6.74"/>
        <rect class="cls-50" x="295.92" y="41.76" width=".17" height="6.74"/>
        <rect class="cls-41" x="296.09" y="41.76" width=".17" height="6.74"/>
        <rect class="cls-54" x="296.27" y="41.76" width=".17" height="6.74"/>
        <rect class="cls-17" x="296.44" y="41.76" width=".17" height="6.74"/>
        <rect class="cls-19" x="296.61" y="41.76" width=".17" height="6.74"/>
        <rect class="cls-39" x="296.78" y="41.76" width=".17" height="6.74"/>
        <rect class="cls-48" x="296.96" y="41.76" width=".17" height="6.74"/>
        <rect class="cls-32" x="297.13" y="41.76" width=".17" height="6.74"/>
        <rect class="cls-49" x="297.3" y="41.76" width=".17" height="6.74"/>
        <rect class="cls-11" x="297.47" y="41.76" width=".17" height="6.74"/>
        <rect class="cls-15" x="297.64" y="41.76" width=".17" height="6.74"/>
        <rect class="cls-27" x="297.82" y="41.76" width=".17" height="6.74"/>
        <rect class="cls-22" x="297.99" y="41.76" width=".17" height="6.74"/>
        <rect class="cls-45" x="298.16" y="41.76" width=".17" height="6.74"/>
        <rect class="cls-26" x="298.33" y="41.76" width=".17" height="6.74"/>
        <rect class="cls-58" x="298.51" y="41.76" width=".17" height="6.74"/>
        <rect class="cls-2" x="298.68" y="41.76" width=".17" height="6.74"/>
        <rect class="cls-65" x="298.85" y="41.76" width=".17" height="6.74"/>
        <rect class="cls-64" x="299.02" y="41.76" width=".17" height="6.74"/>
        <rect class="cls-30" x="299.2" y="41.76" width=".17" height="6.74"/>
        <rect class="cls-52" x="299.37" y="41.76" width=".17" height="6.74"/>
        <rect class="cls-25" x="299.54" y="41.76" width=".17" height="6.74"/>
        <rect class="cls-7" x="299.71" y="41.76" width=".17" height="6.74"/>
        <rect class="cls-31" x="299.88" y="41.76" width=".17" height="6.74"/>
        <rect class="cls-42" x="300.06" y="41.76" width=".17" height="6.74"/>
        <rect class="cls-61" x="300.23" y="41.76" width=".17" height="6.74"/>
        <rect class="cls-9" x="300.4" y="41.76" width=".17" height="6.74"/>
        <rect class="cls-63" x="300.57" y="41.76" width=".17" height="6.74"/>
        <rect class="cls-4" x="300.75" y="41.76" width=".17" height="6.74"/>
        <rect class="cls-3" x="300.92" y="41.76" width=".17" height="6.74"/>
        <rect class="cls-23" x="301.09" y="41.76" width=".17" height="6.74"/>
        <rect class="cls-37" x="301.26" y="41.76" width=".17" height="6.74"/>
        <rect class="cls-5" x="301.43" y="41.76" width=".17" height="6.74"/>
        <rect class="cls-43" x="301.61" y="41.76" width=".17" height="6.74"/>
        <rect class="cls-44" x="301.78" y="41.76" width=".17" height="6.74"/>
        <rect class="cls-47" x="301.95" y="41.76" width=".17" height="6.74"/>
      </g>
      <rect class="cls-18" x="293.26" y="44.84" width="10.15" height=".58" transform="translate(45.43 209.7) rotate(-41.65)"/>
    </g>
    <path class="cls-51" d="M271.8,70.07c-.16,0-.33-.03-.5-.08-.44-.14-.83-.44-1.08-.85-.26-.41-.36-.89-.29-1.35.08-.47.33-.86.7-1.09.38-.24.84-.29,1.29-.15.44.14.83.44,1.08.85h0c.54.87.35,1.96-.42,2.44-.24.15-.51.23-.79.23ZM271.44,67c-.19,0-.37.05-.52.15-.25.16-.42.42-.47.73-.05.33.02.68.21.99s.47.53.8.63c.31.09.62.06.86-.09.53-.33.64-1.1.25-1.73h0c-.19-.31-.47-.53-.8-.63-.12-.04-.23-.05-.34-.05Z"/>
    <path class="cls-55" d="M273.03,72.28c-.15,0-.31,0-.46-.03l.06-.52c.41.05.8.02,1.15-.07l.13.5c-.28.07-.57.11-.88.11ZM271.29,71.91c-.39-.16-.78-.38-1.15-.64l.3-.42c.33.24.69.43,1.04.58l-.2.48ZM275.11,71.51l-.36-.38c.27-.25.47-.57.59-.94l.49.16c-.15.45-.4.84-.73,1.16ZM269.16,70.42h0c-.3-.33-.57-.67-.79-1.04l.44-.27c.21.33.45.65.73.95h0s-.2.2-.2.2l-.17.17ZM269.33,70.25h0s.01-.01.01-.01h-.01ZM275.49,69.04c-.02-.38-.1-.77-.23-1.16l.49-.17c.15.44.24.87.26,1.3l-.52.03ZM267.8,68.2c-.15-.44-.24-.87-.26-1.3l.52-.03c.02.38.1.77.24,1.16l-.49.17ZM274.74,66.81c-.21-.34-.46-.66-.73-.95h0s.38-.36.38-.36h0c.3.33.57.67.8,1.04l-.44.27ZM268.19,65.73l-.49-.16c.15-.45.4-.84.73-1.16l.36.38c-.27.25-.47.57-.59.95ZM273.09,65.06c-.33-.24-.69-.43-1.04-.58l.2-.48c.39.16.78.38,1.15.64l-.3.42ZM269.76,64.25l-.13-.5c.41-.11.87-.14,1.34-.09l-.06.52c-.41-.05-.8-.02-1.15.07Z"/>
    <path class="cls-33" d="M275.68,75.33l-.04-.52c.58-.05,1.13-.18,1.62-.38l.2.48c-.55.23-1.15.37-1.78.42ZM273.86,75.26c-.58-.09-1.16-.25-1.74-.47l.18-.49c.55.2,1.1.35,1.64.44l-.08.51ZM270.5,74.02c-.51-.29-1.01-.64-1.48-1.01l.32-.4c.45.36.93.69,1.41.97l-.26.45ZM279,73.92l-.36-.38c.4-.38.73-.83.98-1.33l.47.23c-.27.56-.64,1.06-1.09,1.48ZM280.62,70.68l-.51-.07c.04-.3.07-.62.07-.95,0-.24-.01-.49-.04-.74l.52-.05c.03.27.04.53.04.79,0,.35-.02.69-.07,1.02ZM279.8,67.25c-.16-.53-.38-1.07-.64-1.59l.46-.23c.27.55.5,1.11.67,1.67l-.5.15ZM264.61,65.43c-.03-.27-.04-.54-.04-.8,0-.35.02-.69.07-1.02l.51.07c-.04.3-.07.62-.07.94,0,.24.01.49.04.75l-.52.05ZM278.28,64.19c-.33-.46-.69-.91-1.09-1.33l.37-.36h0c.41.44.79.91,1.13,1.39l-.42.3ZM265.64,62.09l-.47-.23c.27-.56.64-1.06,1.09-1.48l.36.38c-.4.38-.73.83-.98,1.33ZM275.92,61.69c-.45-.36-.93-.69-1.42-.97l.26-.45c.51.29,1.01.64,1.48,1.01l-.32.4ZM272.96,59.99c-.55-.2-1.1-.35-1.64-.44l.08-.51c.58.09,1.16.25,1.74.47l-.18.49ZM268,59.86l-.2-.48c.55-.23,1.15-.37,1.78-.42l.04.52c-.58.05-1.13.18-1.62.39Z"/>
    <path class="cls-10" d="M278.23,76.89l-.03-.52c.57-.03,1.12-.11,1.64-.25l.13.5c-.55.15-1.14.23-1.75.27ZM276.47,76.82c-.57-.07-1.14-.18-1.72-.34l.14-.5c.55.15,1.11.26,1.65.33l-.06.51ZM281.63,75.97l-.25-.46c.49-.26.93-.59,1.33-.96h0s.13.14.13.14l.22.24h0c-.43.41-.92.76-1.44,1.04ZM284.2,73.55l-.44-.27c.29-.46.52-.96.7-1.5l.49.16c-.19.58-.44,1.12-.75,1.61ZM285.32,70.21l-.52-.06c.04-.34.06-.69.06-1.05,0-.2,0-.41-.02-.62l.52-.03c.01.22.02.44.02.66,0,.37-.02.75-.06,1.11ZM284.62,66.82c-.11-.54-.27-1.08-.45-1.62l.49-.17c.2.56.35,1.13.47,1.69l-.51.11ZM283.52,63.63c-.24-.5-.52-1-.82-1.48l.44-.27c.31.5.59,1.01.84,1.53l-.47.23ZM263.07,62.58c-.01-.22-.02-.44-.02-.66,0-.37.02-.74.06-1.1l.52.06c-.04.34-.06.69-.06,1.04,0,.21,0,.42.02.63l-.52.03ZM281.73,60.76c-.34-.44-.71-.88-1.1-1.29h0s.38-.36.38-.36h0c.4.43.78.88,1.13,1.33l-.41.32ZM263.97,59.25l-.49-.16c.19-.58.44-1.12.75-1.61l.44.27c-.29.46-.52.96-.69,1.5ZM279.41,58.29c-.43-.37-.87-.73-1.33-1.05l.3-.42c.47.33.93.7,1.37,1.08l-.34.39ZM265.71,56.47l-.36-.37h0c.43-.41.91-.76,1.44-1.04l.25.46c-.48.26-.93.59-1.33.96ZM276.65,56.34c-.5-.28-1.01-.53-1.52-.74l.2-.48c.53.22,1.06.48,1.57.77l-.25.45ZM273.54,55.05c-.55-.15-1.11-.26-1.65-.33l.06-.51c.57.07,1.15.18,1.72.34l-.14.5ZM268.58,54.91l-.13-.5c.55-.15,1.14-.24,1.75-.27l.03.52c-.57.03-1.12.11-1.64.25Z"/>
    <path class="cls-1" d="M288.61,74.5l-.46-.26c.27-.49.49-1.03.67-1.59l.49.17c-.19.59-.42,1.16-.71,1.68ZM268.69,74.02c-.43-.4-.84-.83-1.24-1.27l.38-.37c.39.43.8.84,1.21,1.24l-.35.4ZM266.3,71.39c-.37-.47-.72-.96-1.04-1.45l.43-.3c.32.48.66.96,1.02,1.41l-.41.34ZM289.72,71.05l-.51-.08c.08-.56.12-1.14.13-1.74h.52c0,.62-.05,1.23-.13,1.82ZM264.34,68.41c-.29-.53-.56-1.07-.8-1.61l.47-.22c.23.53.49,1.05.77,1.57l-.45.27ZM289.23,67.48c-.07-.57-.17-1.15-.3-1.72l.51-.13c.14.6.24,1.2.31,1.78l-.52.07ZM262.4,63.39l.51-.13c.13.56.29,1.12.48,1.68l-.49.18M288.45,64.07c-.18-.54-.4-1.09-.63-1.63l.47-.22c.24.55.46,1.12.65,1.68l-.49.18ZM262.08,61.61c-.07-.59-.11-1.18-.11-1.76v-.06s.52,0,.52,0v.05c0,.55.03,1.12.1,1.69l-.52.07ZM287.04,60.88c-.28-.5-.58-1.01-.9-1.49l.43-.3c.33.5.64,1.01.92,1.53l-.45.27ZM262.62,58.06l-.51-.08c.09-.61.23-1.21.4-1.78l.49.17c-.17.54-.3,1.11-.38,1.69ZM285.12,57.97c-.35-.45-.73-.9-1.12-1.33h0s.38-.38.38-.38h.01c.4.45.78.91,1.14,1.37l-.41.34ZM282.78,55.39c-.42-.4-.86-.78-1.3-1.13l.32-.43c.46.36.9.76,1.34,1.16l-.35.4ZM263.67,54.78l-.46-.26c.29-.54.63-1.05,1.01-1.51l.39.35c-.36.43-.68.91-.95,1.42ZM280.09,53.24c-.48-.32-.97-.62-1.47-.89l.24-.48c.51.28,1.01.59,1.5.92l-.28.45ZM265.84,52.18l-.32-.43c.47-.37.98-.69,1.51-.96l.22.49c-.51.25-.98.55-1.42.9ZM277.09,51.59c-.53-.23-1.07-.43-1.6-.6l.15-.52c.55.17,1.1.38,1.65.61l-.2.5ZM268.83,50.69l-.13-.52c.56-.15,1.14-.26,1.74-.31l.05.54c-.57.05-1.13.15-1.65.3ZM273.85,50.58c-.56-.11-1.13-.18-1.68-.21l.03-.54c.57.03,1.16.11,1.74.22l-.09.53Z"/>
    <path class="cls-28" d="M279.58,78.23c-.57-.06-1.15-.15-1.73-.27l.11-.51c.56.12,1.12.21,1.68.26l-.05.52ZM276.15,77.51c-.55-.17-1.1-.38-1.64-.61l.2-.48c.53.22,1.06.42,1.59.59l-.16.49ZM272.65,76.38c-.51-.27-1.02-.57-1.5-.89l.28-.44c.48.31.97.6,1.47.87l-.24.46ZM290.55,73.89l-.41-.32c.34-.44.65-.92.92-1.41l.46.25c-.28.52-.6,1.02-.96,1.48ZM292.23,70.8l-.49-.18c.19-.52.34-1.07.46-1.62l.51.11c-.12.58-.28,1.15-.48,1.69ZM292.96,67.36l-.52-.04c.03-.37.04-.74.04-1.11,0-.19,0-.39-.01-.58l.52-.02c0,.2.01.4.01.6,0,.39-.02.78-.04,1.16ZM292.31,63.94c-.08-.55-.19-1.11-.33-1.67l.5-.13c.14.57.26,1.15.34,1.72l-.51.08ZM291.49,60.64c-.19-.53-.4-1.06-.64-1.58l.47-.22c.24.53.46,1.08.66,1.62l-.49.17ZM290.07,57.55c-.28-.49-.58-.98-.9-1.45l.43-.29c.33.48.64.98.92,1.48l-.45.26ZM288.16,54.73c-.35-.44-.73-.87-1.12-1.29h0s.38-.37.38-.37h.01c.4.43.78.88,1.14,1.33l-.4.32ZM285.82,52.24c-.42-.38-.86-.75-1.31-1.1l.32-.41c.46.35.91.73,1.34,1.12l-.35.38ZM265.82,50.18l-.36-.38h0c.43-.41.89-.78,1.37-1.1l.29.43c-.46.31-.9.66-1.31,1.05h0ZM283.12,50.16c-.48-.31-.97-.6-1.47-.87l.24-.46c.51.27,1.01.57,1.51.89l-.28.44ZM280.12,48.56c-.53-.22-1.06-.42-1.6-.59l.16-.49c.55.17,1.1.38,1.64.61l-.2.48ZM268.6,48.3l-.22-.47c.53-.25,1.08-.45,1.65-.62l.15.5c-.54.16-1.07.36-1.58.59ZM276.88,47.54c-.56-.12-1.12-.2-1.68-.26l.05-.52c.57.06,1.15.15,1.73.27l-.11.51ZM271.83,47.35l-.08-.51c.57-.08,1.16-.13,1.75-.14v.52c-.56.01-1.13.06-1.68.14Z"/>
    <path class="cls-40" d="M292.23,73.41l-.38-.34c.48-.55.92-1.15,1.3-1.78l.43.27c-.39.66-.85,1.28-1.35,1.85ZM294.59,69.49l-.47-.19c.26-.68.48-1.39.63-2.13l.49.11c-.16.76-.38,1.5-.65,2.21ZM295.55,65l-.5-.03c.02-.33.03-.68.03-1.02,0-.4-.01-.81-.04-1.21l.5-.04c.03.42.05.84.05,1.25,0,.35-.01.7-.03,1.05ZM294.74,60.53c-.14-.72-.34-1.45-.57-2.16l.48-.16c.24.73.44,1.48.58,2.22l-.49.1ZM293.36,56.3c-.31-.67-.65-1.33-1.04-1.97l.43-.26c.39.65.75,1.34,1.06,2.02l-.45.22ZM291.08,52.48c-.44-.59-.92-1.16-1.42-1.71h0s.36-.36.36-.36h.01c.51.57,1,1.15,1.46,1.76l-.4.31ZM288.06,49.21c-.56-.49-1.14-.95-1.74-1.37l.29-.42c.61.43,1.21.9,1.78,1.4l-.33.39ZM284.45,46.67c-.65-.36-1.32-.68-1.99-.95l.19-.47c.69.28,1.38.61,2.04.98l-.24.45ZM269.72,45.97l-.23-.45c.66-.36,1.36-.66,2.09-.9l.16.49c-.7.23-1.37.52-2.01.86ZM280.38,45.01c-.71-.19-1.44-.34-2.15-.44l.07-.51c.74.1,1.48.25,2.21.45l-.13.49ZM273.86,44.6l-.08-.5c.73-.11,1.49-.17,2.26-.18v.51c-.74,0-1.47.06-2.18.17Z"/>
    <path class="cls-57" d="M282.08,77.97v-.51c.73-.02,1.47-.09,2.19-.21l.08.51c-.74.12-1.51.2-2.27.22ZM286.57,77.04l-.15-.49c.7-.23,1.39-.51,2.05-.83l.22.46c-.68.34-1.39.63-2.12.86ZM290.43,75.18l-.28-.42c.6-.42,1.18-.9,1.71-1.41l.35.37-.22-.21.22.21h0c-.55.54-1.15,1.03-1.77,1.47ZM293.97,72.28l-.39-.32c.45-.59.86-1.22,1.23-1.87l.44.25c-.37.68-.8,1.33-1.27,1.94ZM296.21,68.23l-.47-.18c.26-.7.48-1.42.64-2.16l.49.11c-.17.76-.39,1.51-.66,2.23ZM297.22,63.7l-.5-.04c.04-.49.06-.99.06-1.48,0-.26,0-.52-.02-.78l.5-.02c.01.27.02.54.02.8,0,.51-.02,1.02-.06,1.53ZM296.53,59.15c-.12-.74-.3-1.48-.51-2.2l.48-.15c.22.74.4,1.51.52,2.26l-.49.09ZM295.25,54.82c-.29-.69-.63-1.37-1-2.02l.43-.26c.38.67.73,1.37,1.03,2.07l-.46.21ZM293.02,50.91c-.44-.6-.92-1.18-1.43-1.73h-.01s.37-.36.37-.36h.01c.52.58,1.01,1.18,1.46,1.79l-.4.31ZM265.03,50.73l-.44-.25c.37-.68.8-1.33,1.27-1.94l.39.32c-.45.59-.86,1.22-1.22,1.87ZM289.98,47.61c-.56-.49-1.16-.95-1.77-1.36l.28-.43c.63.43,1.24.9,1.81,1.4l-.32.39ZM267.74,47.19l-.34-.37h0c.55-.54,1.15-1.03,1.77-1.47l.28.42c-.6.42-1.17.9-1.71,1.41h0ZM286.3,45.09c-.66-.34-1.34-.65-2.03-.91l.17-.48c.71.27,1.41.58,2.08.93l-.23.46ZM271.36,44.63l-.22-.46c.68-.34,1.39-.63,2.12-.86l.15.49c-.7.23-1.39.51-2.05.83ZM282.15,43.53c-.72-.17-1.45-.3-2.18-.38l.05-.51c.75.08,1.5.21,2.24.39l-.11.5ZM275.56,43.27l-.08-.51c.74-.12,1.51-.2,2.27-.22v.51c-.73.02-1.47.09-2.19.21Z"/>
    <path class="cls-13" d="M266.68,69.9c-.45-.6-.86-1.16-1.23-1.8l.44-.25c.36.62.77,1.23,1.2,1.81l-.4.24ZM298.56,61.88l-.5-.04c.03-.45.05-.9.05-1.35,0-.27,0-.55-.02-.82l.5-.02c.01.28.02.56.02.84,0,.46-.02.93-.05,1.39ZM297.86,57.51c-.12-.71-.29-1.42-.49-2.11l.48-.14c.21.71.38,1.44.51,2.17l-.5.08ZM296.62,53.36c-.29-.66-.62-1.31-.98-1.94l.44-.25c.37.64.71,1.31,1.01,1.99l-.46.2ZM294.44,49.6c-.43-.58-.9-1.14-1.4-1.66h-.01s.36-.36.36-.36h.01c.51.56.99,1.13,1.44,1.72l-.4.3ZM291.45,46.43c-.55-.47-1.14-.91-1.74-1.3l.28-.42c.62.41,1.22.86,1.79,1.34l-.32.38ZM287.84,44.04c-.65-.33-1.32-.62-1.99-.86l.17-.47c.7.25,1.38.55,2.05.89l-.23.45ZM283.76,42.55c-.71-.16-1.43-.29-2.14-.36l.05-.5c.74.08,1.48.21,2.2.37l-.11.49ZM277.29,42.26l-.07-.5c.73-.11,1.48-.17,2.23-.18v.5c-.72.01-1.44.07-2.16.18Z"/>
    <path class="cls-46" d="M297.7,63.63l.5.09s-.29,1.45-.52,2.17l-.48-.15s.31-.98.51-2.11Z"/>
    <g>
      <g class="cls-24">
        <rect class="cls-29" x="259.43" y="68.16" width=".28" height="10.24"/>
        <rect class="cls-8" x="259.71" y="68.16" width=".28" height="10.24"/>
        <rect class="cls-53" x="259.98" y="68.16" width=".28" height="10.24"/>
        <rect class="cls-38" x="260.26" y="68.16" width=".28" height="10.24"/>
        <rect class="cls-12" x="260.54" y="68.16" width=".28" height="10.24"/>
        <rect class="cls-35" x="260.81" y="68.16" width=".28" height="10.24"/>
        <rect class="cls-59" x="261.09" y="68.16" width=".28" height="10.24"/>
        <rect class="cls-6" x="261.37" y="68.16" width=".28" height="10.24"/>
        <rect class="cls-50" x="261.64" y="68.16" width=".28" height="10.24"/>
        <rect class="cls-41" x="261.92" y="68.16" width=".28" height="10.24"/>
        <rect class="cls-54" x="262.19" y="68.16" width=".28" height="10.24"/>
        <rect class="cls-17" x="262.47" y="68.16" width=".28" height="10.24"/>
        <rect class="cls-19" x="262.75" y="68.16" width=".28" height="10.24"/>
        <rect class="cls-39" x="263.02" y="68.16" width=".28" height="10.24"/>
        <rect class="cls-48" x="263.3" y="68.16" width=".28" height="10.24"/>
        <rect class="cls-32" x="263.58" y="68.16" width=".28" height="10.24"/>
        <rect class="cls-49" x="263.85" y="68.16" width=".28" height="10.24"/>
        <rect class="cls-11" x="264.13" y="68.16" width=".28" height="10.24"/>
        <rect class="cls-15" x="264.4" y="68.16" width=".28" height="10.24"/>
        <rect class="cls-27" x="264.68" y="68.16" width=".28" height="10.24"/>
        <rect class="cls-22" x="264.96" y="68.16" width=".28" height="10.24"/>
        <rect class="cls-45" x="265.23" y="68.16" width=".28" height="10.24"/>
        <rect class="cls-26" x="265.51" y="68.16" width=".28" height="10.24"/>
        <rect class="cls-58" x="265.79" y="68.16" width=".28" height="10.24"/>
        <rect class="cls-2" x="266.06" y="68.16" width=".28" height="10.24"/>
        <rect class="cls-65" x="266.34" y="68.16" width=".28" height="10.24"/>
        <rect class="cls-64" x="266.61" y="68.16" width=".28" height="10.24"/>
        <rect class="cls-30" x="266.89" y="68.16" width=".28" height="10.24"/>
        <rect class="cls-52" x="267.17" y="68.16" width=".28" height="10.24"/>
        <rect class="cls-25" x="267.44" y="68.16" width=".28" height="10.24"/>
        <rect class="cls-7" x="267.72" y="68.16" width=".28" height="10.24"/>
        <rect class="cls-31" x="268" y="68.16" width=".28" height="10.24"/>
        <rect class="cls-42" x="268.27" y="68.16" width=".28" height="10.24"/>
        <rect class="cls-61" x="268.55" y="68.16" width=".28" height="10.24"/>
        <rect class="cls-9" x="268.82" y="68.16" width=".28" height="10.24"/>
        <rect class="cls-63" x="269.1" y="68.16" width=".28" height="10.24"/>
        <rect class="cls-4" x="269.38" y="68.16" width=".28" height="10.24"/>
        <rect class="cls-3" x="269.65" y="68.16" width=".28" height="10.24"/>
        <rect class="cls-23" x="269.93" y="68.16" width=".28" height="10.24"/>
        <rect class="cls-37" x="270.21" y="68.16" width=".28" height="10.24"/>
        <rect class="cls-5" x="270.48" y="68.16" width=".28" height="10.24"/>
        <rect class="cls-43" x="270.76" y="68.16" width=".28" height="10.24"/>
        <rect class="cls-44" x="271.03" y="68.16" width=".28" height="10.24"/>
        <rect class="cls-47" x="271.31" y="68.16" width=".28" height="10.24"/>
      </g>
      <path class="cls-14" d="M259.62,78.63l.09.26s.17.61-.4.96c-.44.27-1.76.84-2.36,1.04-.19.06-.31.07-.35-.06s0-.27,0-.27c0,0,.96-2.17,1.62-2.43s.98.11.98.11l.05-.06,12.16-10.24.37.44-12.16,10.24Z"/>
    </g>
    <path class="cls-56" d="M287.59,75.21l.42.31s-.83,1.11-1.19,1.38l-.35-.39s.64-.58,1.12-1.3Z"/>
  </g>
</svg>