<?xml version="1.0" encoding="UTF-8"?>
<svg id="Layer_1" data-name="Layer 1" xmlns="http://www.w3.org/2000/svg" xmlns:xlink="http://www.w3.org/1999/xlink" viewBox="0 0 1080 1080">
  <defs>
    <style>
      .cls-1 {
        fill: #959be6;
      }

      .cls-2 {
        fill: url(#radial-gradient-10);
      }

      .cls-3 {
        fill: #463d9b;
      }

      .cls-4 {
        fill: #6764bb;
      }

      .cls-5 {
        fill: #3d3393;
      }

      .cls-6 {
        fill: #473f9d;
      }

      .cls-7 {
        fill: #7373c6;
      }

      .cls-8 {
        fill: #534ca7;
      }

      .cls-9 {
        fill: #f97312;
      }

      .cls-10 {
        fill: #423998;
      }

      .cls-11 {
        fill: #5a55ae;
      }

      .cls-12 {
        fill: #fd8006;
      }

      .cls-13 {
        fill: #9fa7f0;
      }

      .cls-14 {
        fill: #5e5ab3;
      }

      .cls-15 {
        fill: #6a67bd;
      }

      .cls-16 {
        fill: #514aa6;
      }

      .cls-17 {
        fill: #fd7f07;
      }

      .cls-18 {
        fill: #6e6cc1;
      }

      .cls-19 {
        fill: #6a68be;
      }

      .cls-20 {
        fill: #fe8303;
      }

      .cls-21 {
        fill: #3f3594;
      }

      .cls-22 {
        fill: #f36122;
      }

      .cls-23 {
        fill: #fb790c;
      }

      .cls-24 {
        fill: #413897;
      }

      .cls-25 {
        fill: #8183d3;
      }

      .cls-26 {
        fill: #3b3090;
      }

      .cls-27 {
        fill: #615db5;
      }

      .cls-28 {
        fill: #7d7fd0;
      }

      .cls-29 {
        fill: #7676c8;
      }

      .cls-30 {
        fill: #f15b28;
      }

      .cls-31 {
        fill: #8e93e0;
      }

      .cls-32 {
        fill: #6966bc;
      }

      .cls-33 {
        fill: #fc7d09;
      }

      .cls-34 {
        fill: url(#radial-gradient-9);
      }

      .cls-35 {
        fill: #5852ac;
      }

      .cls-36 {
        fill: #f76b19;
      }

      .cls-37 {
        fill: #9ba2ec;
      }

      .cls-38 {
        fill: #a5adf5;
      }

      .cls-39 {
        fill: #a0a8f1;
      }

      .cls-40 {
        fill: #797acc;
      }

      .cls-41 {
        fill: #99a0eb;
      }

      .cls-42 {
        fill: #a9b2f9;
      }

      .cls-43 {
        fill: #7c7ecf;
      }

      .cls-44 {
        fill: #9fa6ef;
      }

      .cls-45 {
        fill: #f25e25;
      }

      .cls-46 {
        fill: #a5aef6;
      }

      .cls-47 {
        fill: #433a99;
      }

      .cls-48 {
        fill: #a8b1f8;
      }

      .cls-49 {
        fill: #453c9a;
      }

      .cls-50 {
        fill: #8082d2;
      }

      .cls-51 {
        fill: #f76c18;
      }

      .cls-52 {
        fill: #4e47a3;
      }

      .cls-53 {
        fill: #6d6bc0;
      }

      .cls-54 {
        fill: #49419e;
      }

      .cls-55 {
        fill: #3c3292;
      }

      .cls-56 {
        fill: #a4acf4;
      }

      .cls-57 {
        fill: #9297e3;
      }

      .cls-58 {
        fill: #8487d6;
      }

      .cls-59 {
        fill: #a7b0f8;
      }

      .cls-60 {
        fill: #625eb6;
      }

      .cls-61 {
        fill: none;
      }

      .cls-62 {
        fill: #f5651f;
      }

      .cls-63 {
        fill: #8a8edc;
      }

      .cls-64 {
        fill: #969ce7;
      }

      .cls-65 {
        fill: url(#radial-gradient-5);
      }

      .cls-66 {
        fill: #f5661e;
      }

      .cls-67 {
        fill: #949ae6;
      }

      .cls-68 {
        fill: url(#radial-gradient);
      }

      .cls-69 {
        fill: #392e8f;
      }

      .cls-70 {
        fill: url(#radial-gradient-3);
      }

      .cls-71 {
        fill: #888cda;
      }

      .cls-72 {
        fill: #aeb8fe;
      }

      .cls-73 {
        fill: #f86e16;
      }

      .cls-74 {
        fill: #6562b9;
      }

      .cls-75 {
        fill: #5c57b0;
      }

      .cls-76 {
        fill: #fd8105;
      }

      .cls-77 {
        fill: #aab3fa;
      }

      .cls-78 {
        fill: #8588d7;
      }

      .cls-79 {
        fill: #7271c5;
      }

      .cls-80 {
        fill: #7677c9;
      }

      .cls-81 {
        fill: #8386d5;
      }

      .cls-82 {
        clip-path: url(#clippath-1);
      }

      .cls-83 {
        fill: #7474c7;
      }

      .cls-84 {
        fill: #3b3191;
      }

      .cls-85 {
        fill: #fa780d;
      }

      .cls-86 {
        fill: #7778ca;
      }

      .cls-87 {
        fill: #f87114;
      }

      .cls-88 {
        fill: #f76d17;
      }

      .cls-89 {
        fill: #9095e2;
      }

      .cls-90 {
        fill: #524ba6;
      }

      .cls-91 {
        fill: #abb5fc;
      }

      .cls-92 {
        fill: #5e59b2;
      }

      .cls-93 {
        fill: #8c90de;
      }

      .cls-94 {
        fill: #999fea;
      }

      .cls-95 {
        fill: #9ea5ef;
      }

      .cls-96 {
        fill: #f1f2f6;
      }

      .cls-97 {
        fill: #8285d5;
      }

      .cls-98 {
        fill: url(#radial-gradient-11);
      }

      .cls-99 {
        fill: #9aa1eb;
      }

      .cls-100 {
        fill: #f15a29;
      }

      .cls-101 {
        fill: #635fb7;
      }

      .cls-102 {
        fill: #8284d4;
      }

      .cls-103 {
        fill: #8689d8;
      }

      .cls-104 {
        fill: #4d46a2;
      }

      .cls-105 {
        fill: #554faa;
      }

      .cls-106 {
        fill: #9da4ee;
      }

      .cls-107 {
        fill: #3a2f90;
      }

      .cls-108 {
        fill: #8f94e1;
      }

      .cls-109 {
        fill: #8b8fdd;
      }

      .cls-110 {
        fill: #a6aff7;
      }

      .cls-111 {
        fill: #fa760f;
      }

      .cls-112 {
        fill: #9398e4;
      }

      .cls-113 {
        fill: #5f5bb3;
      }

      .cls-114 {
        fill: #fb7a0b;
      }

      .cls-115 {
        fill: #7e80d1;
      }

      .cls-116 {
        fill: #706fc4;
      }

      .cls-117 {
        fill: #f6691b;
      }

      .cls-118 {
        fill: #6c6ac0;
      }

      .cls-119 {
        fill: url(#radial-gradient-8);
      }

      .cls-120 {
        fill: url(#radial-gradient-2);
      }

      .cls-121 {
        fill: #5751ab;
      }

      .cls-122 {
        fill: #f35f24;
      }

      .cls-123 {
        fill: #4f48a4;
      }

      .cls-124 {
        fill: #3e3494;
      }

      .cls-125 {
        fill: #4c44a1;
      }

      .cls-126 {
        fill: #5650aa;
      }

      .cls-127 {
        fill: #888bd9;
      }

      .cls-128 {
        fill: #544ea9;
      }

      .cls-129 {
        fill: url(#radial-gradient-4);
      }

      .cls-130 {
        fill: #fe8204;
      }

      .cls-131 {
        fill: #878ad9;
      }

      .cls-132 {
        fill: #6460b7;
      }

      .cls-133 {
        fill: #a2aaf3;
      }

      .cls-134 {
        fill: #443b99;
      }

      .cls-135 {
        fill: #f25d26;
      }

      .cls-136 {
        fill: #f5671d;
      }

      .cls-137 {
        fill: #7575c8;
      }

      .cls-138 {
        fill: #7c7dce;
      }

      .cls-139 {
        fill: url(#radial-gradient-12);
      }

      .cls-140 {
        fill: #9196e2;
      }

      .cls-141 {
        fill: #5049a5;
      }

      .cls-142 {
        fill: #9ca3ed;
      }

      .cls-143 {
        fill: #605cb4;
      }

      .cls-144 {
        fill: #f46320;
      }

      .cls-145 {
        fill: #6663ba;
      }

      .cls-146 {
        fill: #fb7b0a;
      }

      .cls-147 {
        fill: #413796;
      }

      .cls-148 {
        fill: #5d58b1;
      }

      .cls-149 {
        fill: #48409d;
      }

      .cls-150 {
        fill: #fe8402;
      }

      .cls-151 {
        fill: #7170c4;
      }

      .cls-152 {
        fill: #5b56af;
      }

      .cls-153 {
        fill: #ff8501;
      }

      .cls-154 {
        fill: #706ec3;
      }

      .cls-155 {
        fill: #f86f15;
      }

      .cls-156 {
        fill: #6f6dc2;
      }

      .cls-157 {
        fill: #382d8e;
      }

      .cls-158 {
        fill: #4d45a1;
      }

      .cls-159 {
        fill: #ff8600;
      }

      .cls-160 {
        fill: #8d91de;
      }

      .cls-161 {
        fill: #f6681c;
      }

      .cls-162 {
        fill: #8e92df;
      }

      .cls-163 {
        fill: #7879cb;
      }

      .cls-164 {
        fill: #7a7bcc;
      }

      .cls-165 {
        fill: #f66a1a;
      }

      .cls-166 {
        fill: #adb7fd;
      }

      .cls-167 {
        fill: #989ee9;
      }

      .cls-168 {
        fill: #f46221;
      }

      .cls-169 {
        fill: url(#radial-gradient-6);
      }

      .cls-170 {
        fill: #acb6fc;
      }

      .cls-171 {
        fill: #898ddb;
      }

      .cls-172 {
        fill: #9399e5;
      }

      .cls-173 {
        fill: #fa770e;
      }

      .cls-174 {
        fill: #f25c27;
      }

      .cls-175 {
        fill: #f4641f;
      }

      .cls-176 {
        fill: url(#radial-gradient-7);
      }

      .cls-177 {
        fill: #6865bb;
      }

      .cls-178 {
        fill: #5954ae;
      }

      .cls-179 {
        fill: #4a429f;
      }

      .cls-180 {
        fill: #534da8;
      }

      .cls-181 {
        fill: #f87213;
      }

      .cls-182 {
        fill: #f36023;
      }

      .cls-183 {
        fill: #a1a9f2;
      }

      .cls-184 {
        fill: url(#linear-gradient);
      }

      .cls-185 {
        fill: #4b43a0;
      }

      .cls-186 {
        fill: #fc7c0a;
      }

      .cls-187 {
        fill: #473e9c;
      }

      .cls-188 {
        clip-path: url(#clippath);
      }

      .cls-189 {
        fill: #fc7e08;
      }

      .cls-190 {
        fill: #f97510;
      }

      .cls-191 {
        fill: #7f81d1;
      }

      .cls-192 {
        fill: #979de8;
      }

      .cls-193 {
        fill: #abb4fb;
      }

      .cls-194 {
        fill: #403695;
      }

      .cls-195 {
        fill: #f97411;
      }

      .cls-196 {
        fill: #6b69bf;
      }

      .cls-197 {
        fill: #6461b8;
      }

      .cls-198 {
        fill: #5853ad;
      }

      .cls-199 {
        fill: #7b7ccd;
      }

      .cls-200 {
        fill: #a3abf3;
      }
    </style>
    <linearGradient id="linear-gradient" x1="238.37" y1="483.8" x2="860.37" y2="483.8" gradientUnits="userSpaceOnUse">
      <stop offset="0" stop-color="#f15a29"/>
      <stop offset="1" stop-color="#ffaf00"/>
    </linearGradient>
    <clipPath id="clippath">
      <line class="cls-61" x1="926.95" y1="168.1" x2="795.42" y2="285.1"/>
    </clipPath>
    <radialGradient id="radial-gradient" cx="861.18" cy="226.6" fx="787.4" fy="289.81" r="97.16" gradientTransform="translate(368.35 -515.08) rotate(41.65)" gradientUnits="userSpaceOnUse">
      <stop offset="0" stop-color="#27187e"/>
      <stop offset=".41" stop-color="#6b69be"/>
      <stop offset=".73" stop-color="#9ba1ec"/>
      <stop offset=".89" stop-color="#aeb8fe"/>
    </radialGradient>
    <radialGradient id="radial-gradient-2" cx="405.27" cy="641.23" fx="405.27" fy="641.23" r="43.03" gradientTransform="translate(-1.01 23.15) rotate(.05) scale(1 .94) skewX(-.44)" gradientUnits="userSpaceOnUse">
      <stop offset=".4" stop-color="#27187e"/>
      <stop offset=".71" stop-color="#aeb8fe"/>
    </radialGradient>
    <radialGradient id="radial-gradient-3" cx="400.25" cy="112.05" fx="400.25" fy="112.05" r="73.46" gradientTransform="scale(1 5.56)" gradientUnits="userSpaceOnUse">
      <stop offset="0" stop-color="#27187e"/>
      <stop offset=".73" stop-color="#aeb8fe"/>
    </radialGradient>
    <radialGradient id="radial-gradient-4" cx="415.22" cy="322.7" fx="415.22" fy="322.7" r="140.19" gradientTransform="scale(1 1.89)" xlink:href="#radial-gradient-3"/>
    <radialGradient id="radial-gradient-5" cx="442.68" cy="525.11" fx="442.68" fy="525.11" r="195.39" gradientTransform="translate(-8.52 -9.22) scale(1.01 1.13)" xlink:href="#radial-gradient-3"/>
    <radialGradient id="radial-gradient-6" cx="471.18" cy="501" fx="471.18" fy="501" r="242.95" gradientTransform="scale(1 1.1)" xlink:href="#radial-gradient-3"/>
    <radialGradient id="radial-gradient-7" cx="529.79" cy="504.86" fx="529.79" fy="504.86" r="251.64" gradientTransform="scale(1 1.03)" xlink:href="#radial-gradient-3"/>
    <radialGradient id="radial-gradient-8" cx="591.46" cy="432.77" fx="591.46" fy="432.77" r="238.67" gradientTransform="translate(23.26 1.73) scale(.97 .98)" xlink:href="#radial-gradient-3"/>
    <radialGradient id="radial-gradient-9" cx="588.88" cy="507.33" fx="588.88" fy="507.33" r="278.14" gradientTransform="translate(19.68 18.4) scale(.96 .88)" xlink:href="#radial-gradient-3"/>
    <radialGradient id="radial-gradient-10" cx="560.32" cy="446.41" fx="560.32" fy="446.41" r="277.89" gradientTransform="translate(24.52 9.14) scale(.97)" xlink:href="#radial-gradient-3"/>
    <clipPath id="clippath-1">
      <line class="cls-61" x1="397.09" y1="626.22" x2="186.17" y2="803.98"/>
    </clipPath>
    <radialGradient id="radial-gradient-11" cx="373.33" cy="-13.36" fx="300.08" fy="-13.36" r="118.35" gradientTransform="translate(-347.86 769.82) scale(1.6 1.52)" gradientUnits="userSpaceOnUse">
      <stop offset=".14" stop-color="#949ae6"/>
      <stop offset=".31" stop-color="#3c3192"/>
      <stop offset=".35" stop-color="#27187e"/>
      <stop offset=".47" stop-color="#27187e"/>
      <stop offset=".54" stop-color="#453c9a"/>
      <stop offset=".63" stop-color="#6a68be"/>
      <stop offset=".72" stop-color="#878ad9"/>
      <stop offset=".8" stop-color="#9ca3ed"/>
      <stop offset=".88" stop-color="#a9b2f9"/>
      <stop offset=".94" stop-color="#aeb8fe"/>
    </radialGradient>
    <radialGradient id="radial-gradient-12" cx="212.06" cy="804.94" fx="212.06" fy="804.94" r="59.86" gradientTransform="translate(-416.21 328.36) rotate(-39.3) scale(.98 .94) skewX(-.02)" gradientUnits="userSpaceOnUse">
      <stop offset=".16" stop-color="#27187e"/>
      <stop offset=".23" stop-color="#2c1e83"/>
      <stop offset=".33" stop-color="#3d3292"/>
      <stop offset=".44" stop-color="#5751ac"/>
      <stop offset=".58" stop-color="#7c7dcf"/>
      <stop offset=".72" stop-color="#abb5fc"/>
      <stop offset=".73" stop-color="#aeb8fe"/>
    </radialGradient>
  </defs>
  <rect class="cls-96" x="-16.88" y="-22.15" width="1120.8" height="1102.15"/>
  <circle class="cls-184" cx="549.37" cy="483.8" r="311"/>
  <g>
    <g class="cls-188">
      <polygon class="cls-72" points="795.42 226.6 818.05 277.16 800.31 285.1 795.42 285.1 795.42 226.6"/>
      <polygon class="cls-72" points="795.42 224.78 795.6 224.7 818.91 276.78 818.05 277.16 795.42 226.6 795.42 224.78"/>
      <rect class="cls-166" x="807.21" y="222.01" width=".95" height="57.06" transform="translate(-31.88 351.82) rotate(-24.11)"/>
      <rect class="cls-170" x="808.08" y="221.63" width=".95" height="57.06" transform="translate(-31.65 352.14) rotate(-24.11)"/>
      <rect class="cls-91" x="808.94" y="221.24" width=".95" height="57.06" transform="translate(-31.41 352.45) rotate(-24.11)"/>
      <rect class="cls-193" x="809.8" y="220.85" width=".95" height="57.06" transform="translate(-31.18 352.77) rotate(-24.11)"/>
      <rect class="cls-77" x="810.67" y="220.47" width=".95" height="57.06" transform="translate(-30.95 353.09) rotate(-24.11)"/>
      <rect class="cls-42" x="811.53" y="220.08" width=".95" height="57.06" transform="translate(-30.71 353.41) rotate(-24.11)"/>
      <rect class="cls-48" x="812.4" y="219.69" width=".95" height="57.06" transform="translate(-30.48 353.73) rotate(-24.11)"/>
      <rect class="cls-59" x="813.26" y="219.31" width=".95" height="57.06" transform="translate(-30.25 354.05) rotate(-24.11)"/>
      <rect class="cls-110" x="814.12" y="218.92" width=".95" height="57.06" transform="translate(-30.01 354.37) rotate(-24.11)"/>
      <rect class="cls-46" x="814.99" y="218.53" width=".95" height="57.06" transform="translate(-29.78 354.69) rotate(-24.11)"/>
      <rect class="cls-38" x="815.85" y="218.15" width=".95" height="57.06" transform="translate(-29.55 355.01) rotate(-24.11)"/>
      <rect class="cls-56" x="816.71" y="217.76" width=".95" height="57.06" transform="translate(-29.31 355.33) rotate(-24.11)"/>
      <rect class="cls-200" x="817.58" y="217.37" width=".95" height="57.06" transform="translate(-29.08 355.65) rotate(-24.11)"/>
      <rect class="cls-133" x="818.44" y="216.99" width=".95" height="57.06" transform="translate(-28.85 355.96) rotate(-24.11)"/>
      <rect class="cls-183" x="819.31" y="216.6" width=".95" height="57.06" transform="translate(-28.61 356.28) rotate(-24.11)"/>
      <rect class="cls-39" x="820.17" y="216.22" width=".95" height="57.06" transform="translate(-28.38 356.6) rotate(-24.11)"/>
      <rect class="cls-13" x="821.03" y="215.83" width=".95" height="57.06" transform="translate(-28.15 356.92) rotate(-24.11)"/>
      <rect class="cls-44" x="821.9" y="215.44" width=".95" height="57.06" transform="translate(-27.91 357.24) rotate(-24.11)"/>
      <rect class="cls-95" x="822.76" y="215.06" width=".95" height="57.06" transform="translate(-27.68 357.56) rotate(-24.11)"/>
      <rect class="cls-106" x="823.62" y="214.67" width=".95" height="57.06" transform="translate(-27.45 357.88) rotate(-24.11)"/>
      <rect class="cls-142" x="824.49" y="214.28" width=".95" height="57.06" transform="translate(-27.21 358.2) rotate(-24.11)"/>
      <rect class="cls-37" x="825.35" y="213.9" width=".95" height="57.06" transform="translate(-26.98 358.52) rotate(-24.11)"/>
      <rect class="cls-99" x="826.21" y="213.51" width=".95" height="57.06" transform="translate(-26.75 358.84) rotate(-24.11)"/>
      <rect class="cls-41" x="827.08" y="213.12" width=".95" height="57.06" transform="translate(-26.52 359.16) rotate(-24.11)"/>
      <rect class="cls-94" x="827.94" y="212.74" width=".95" height="57.06" transform="translate(-26.28 359.47) rotate(-24.11)"/>
      <rect class="cls-167" x="828.81" y="212.35" width=".95" height="57.06" transform="translate(-26.05 359.79) rotate(-24.11)"/>
      <rect class="cls-192" x="829.67" y="211.96" width=".95" height="57.06" transform="translate(-25.82 360.11) rotate(-24.11)"/>
      <rect class="cls-64" x="830.53" y="211.58" width=".95" height="57.06" transform="translate(-25.58 360.43) rotate(-24.11)"/>
      <rect class="cls-1" x="831.4" y="211.19" width=".95" height="57.06" transform="translate(-25.35 360.75) rotate(-24.11)"/>
      <rect class="cls-67" x="832.26" y="210.8" width=".95" height="57.06" transform="translate(-25.12 361.07) rotate(-24.11)"/>
      <rect class="cls-172" x="833.12" y="210.42" width=".95" height="57.06" transform="translate(-24.88 361.39) rotate(-24.11)"/>
      <rect class="cls-112" x="833.99" y="210.03" width=".95" height="57.06" transform="translate(-24.65 361.71) rotate(-24.11)"/>
      <rect class="cls-57" x="834.85" y="209.64" width=".95" height="57.06" transform="translate(-24.42 362.03) rotate(-24.11)"/>
      <rect class="cls-140" x="835.72" y="209.26" width=".95" height="57.06" transform="translate(-24.18 362.35) rotate(-24.11)"/>
      <rect class="cls-89" x="836.58" y="208.87" width=".95" height="57.06" transform="translate(-23.95 362.67) rotate(-24.11)"/>
      <rect class="cls-108" x="837.44" y="208.48" width=".95" height="57.06" transform="translate(-23.72 362.98) rotate(-24.11)"/>
      <rect class="cls-31" x="838.31" y="208.1" width=".95" height="57.06" transform="translate(-23.48 363.3) rotate(-24.11)"/>
      <rect class="cls-162" x="839.17" y="207.71" width=".95" height="57.06" transform="translate(-23.25 363.62) rotate(-24.11)"/>
      <rect class="cls-160" x="840.03" y="207.32" width=".95" height="57.06" transform="translate(-23.02 363.94) rotate(-24.11)"/>
      <rect class="cls-93" x="840.9" y="206.94" width=".95" height="57.06" transform="translate(-22.78 364.26) rotate(-24.11)"/>
      <rect class="cls-109" x="841.76" y="206.55" width=".95" height="57.06" transform="translate(-22.55 364.58) rotate(-24.11)"/>
      <rect class="cls-63" x="842.63" y="206.16" width=".95" height="57.06" transform="translate(-22.32 364.9) rotate(-24.11)"/>
      <rect class="cls-171" x="843.49" y="205.78" width=".95" height="57.06" transform="translate(-22.08 365.22) rotate(-24.11)"/>
      <rect class="cls-71" x="844.35" y="205.39" width=".95" height="57.06" transform="translate(-21.85 365.54) rotate(-24.11)"/>
      <rect class="cls-127" x="845.22" y="205" width=".95" height="57.06" transform="translate(-21.62 365.86) rotate(-24.11)"/>
      <rect class="cls-131" x="846.08" y="204.62" width=".95" height="57.06" transform="translate(-21.38 366.18) rotate(-24.11)"/>
      <rect class="cls-103" x="846.94" y="204.23" width=".95" height="57.06" transform="translate(-21.15 366.5) rotate(-24.11)"/>
      <rect class="cls-78" x="847.81" y="203.85" width=".95" height="57.06" transform="translate(-20.92 366.81) rotate(-24.11)"/>
      <rect class="cls-58" x="848.67" y="203.46" width=".95" height="57.06" transform="translate(-20.68 367.13) rotate(-24.11)"/>
      <rect class="cls-81" x="849.53" y="203.07" width=".95" height="57.06" transform="translate(-20.45 367.45) rotate(-24.11)"/>
      <rect class="cls-97" x="850.4" y="202.69" width=".95" height="57.06" transform="translate(-20.22 367.77) rotate(-24.11)"/>
      <rect class="cls-102" x="851.26" y="202.3" width=".95" height="57.06" transform="translate(-19.98 368.09) rotate(-24.11)"/>
      <rect class="cls-25" x="852.13" y="201.91" width=".95" height="57.06" transform="translate(-19.75 368.41) rotate(-24.11)"/>
      <rect class="cls-50" x="852.99" y="201.53" width=".95" height="57.06" transform="translate(-19.52 368.73) rotate(-24.11)"/>
      <rect class="cls-191" x="853.85" y="201.14" width=".95" height="57.06" transform="translate(-19.28 369.05) rotate(-24.11)"/>
      <rect class="cls-115" x="854.72" y="200.75" width=".95" height="57.06" transform="translate(-19.05 369.37) rotate(-24.11)"/>
      <rect class="cls-28" x="855.58" y="200.37" width=".95" height="57.06" transform="translate(-18.82 369.69) rotate(-24.11)"/>
      <rect class="cls-43" x="856.44" y="199.98" width=".95" height="57.06" transform="translate(-18.58 370.01) rotate(-24.11)"/>
      <rect class="cls-138" x="857.31" y="199.59" width=".95" height="57.06" transform="translate(-18.35 370.32) rotate(-24.11)"/>
      <rect class="cls-199" x="858.17" y="199.21" width=".95" height="57.06" transform="translate(-18.12 370.64) rotate(-24.11)"/>
      <rect class="cls-164" x="859.04" y="198.82" width=".95" height="57.06" transform="translate(-17.88 370.96) rotate(-24.11)"/>
      <rect class="cls-40" x="859.9" y="198.43" width=".95" height="57.06" transform="translate(-17.65 371.28) rotate(-24.11)"/>
      <rect class="cls-163" x="860.76" y="198.05" width=".95" height="57.06" transform="translate(-17.42 371.6) rotate(-24.11)"/>
      <rect class="cls-86" x="861.63" y="197.66" width=".95" height="57.06" transform="translate(-17.18 371.92) rotate(-24.11)"/>
      <rect class="cls-80" x="862.49" y="197.27" width=".95" height="57.06" transform="translate(-16.95 372.24) rotate(-24.11)"/>
      <rect class="cls-29" x="863.35" y="196.89" width=".95" height="57.06" transform="translate(-16.72 372.56) rotate(-24.11)"/>
      <rect class="cls-137" x="864.22" y="196.5" width=".95" height="57.06" transform="translate(-16.48 372.88) rotate(-24.11)"/>
      <rect class="cls-83" x="865.08" y="196.11" width=".95" height="57.06" transform="translate(-16.25 373.2) rotate(-24.11)"/>
      <rect class="cls-7" x="865.94" y="195.73" width=".95" height="57.06" transform="translate(-16.02 373.52) rotate(-24.11)"/>
      <rect class="cls-79" x="866.81" y="195.34" width=".95" height="57.06" transform="translate(-15.78 373.83) rotate(-24.11)"/>
      <rect class="cls-151" x="867.67" y="194.95" width=".95" height="57.06" transform="translate(-15.55 374.15) rotate(-24.11)"/>
      <rect class="cls-116" x="868.54" y="194.57" width=".95" height="57.06" transform="translate(-15.32 374.47) rotate(-24.11)"/>
      <rect class="cls-154" x="869.4" y="194.18" width=".95" height="57.06" transform="translate(-15.08 374.79) rotate(-24.11)"/>
      <rect class="cls-156" x="870.26" y="193.79" width=".95" height="57.06" transform="translate(-14.85 375.11) rotate(-24.11)"/>
      <rect class="cls-18" x="871.13" y="193.41" width=".95" height="57.06" transform="translate(-14.62 375.43) rotate(-24.11)"/>
      <rect class="cls-53" x="871.99" y="193.02" width=".95" height="57.06" transform="translate(-14.38 375.75) rotate(-24.11)"/>
      <rect class="cls-118" x="872.85" y="192.63" width=".95" height="57.06" transform="translate(-14.15 376.07) rotate(-24.11)"/>
      <rect class="cls-196" x="873.72" y="192.25" width=".95" height="57.06" transform="translate(-13.92 376.39) rotate(-24.11)"/>
      <rect class="cls-19" x="874.58" y="191.86" width=".95" height="57.06" transform="translate(-13.68 376.71) rotate(-24.11)"/>
      <rect class="cls-15" x="875.45" y="191.48" width=".95" height="57.06" transform="translate(-13.45 377.03) rotate(-24.11)"/>
      <rect class="cls-32" x="876.31" y="191.09" width=".95" height="57.06" transform="translate(-13.22 377.35) rotate(-24.11)"/>
      <rect class="cls-177" x="877.17" y="190.7" width=".95" height="57.06" transform="translate(-12.98 377.66) rotate(-24.11)"/>
      <rect class="cls-4" x="878.04" y="190.32" width=".95" height="57.06" transform="translate(-12.75 377.98) rotate(-24.11)"/>
      <rect class="cls-145" x="878.9" y="189.93" width=".95" height="57.06" transform="translate(-12.52 378.3) rotate(-24.11)"/>
      <rect class="cls-74" x="879.76" y="189.54" width=".95" height="57.06" transform="translate(-12.29 378.62) rotate(-24.11)"/>
      <rect class="cls-197" x="880.63" y="189.16" width=".95" height="57.06" transform="translate(-12.05 378.94) rotate(-24.11)"/>
      <rect class="cls-132" x="881.49" y="188.77" width=".95" height="57.06" transform="translate(-11.82 379.26) rotate(-24.11)"/>
      <rect class="cls-101" x="882.36" y="188.38" width=".95" height="57.06" transform="translate(-11.59 379.58) rotate(-24.11)"/>
      <rect class="cls-60" x="883.22" y="188" width=".95" height="57.06" transform="translate(-11.35 379.9) rotate(-24.11)"/>
      <rect class="cls-27" x="884.08" y="187.61" width=".95" height="57.06" transform="translate(-11.12 380.22) rotate(-24.11)"/>
      <rect class="cls-143" x="884.95" y="187.22" width=".95" height="57.06" transform="translate(-10.89 380.54) rotate(-24.11)"/>
      <rect class="cls-113" x="885.81" y="186.84" width=".95" height="57.06" transform="translate(-10.65 380.85) rotate(-24.11)"/>
      <rect class="cls-14" x="886.67" y="186.45" width=".95" height="57.06" transform="translate(-10.42 381.17) rotate(-24.11)"/>
      <rect class="cls-92" x="887.54" y="186.06" width=".95" height="57.06" transform="translate(-10.19 381.49) rotate(-24.11)"/>
      <rect class="cls-148" x="888.4" y="185.68" width=".95" height="57.06" transform="translate(-9.95 381.81) rotate(-24.11)"/>
      <rect class="cls-75" x="889.26" y="185.29" width=".95" height="57.06" transform="translate(-9.72 382.13) rotate(-24.11)"/>
      <rect class="cls-152" x="890.13" y="184.9" width=".95" height="57.06" transform="translate(-9.49 382.45) rotate(-24.11)"/>
      <rect class="cls-11" x="890.99" y="184.52" width=".95" height="57.06" transform="translate(-9.25 382.77) rotate(-24.11)"/>
      <rect class="cls-178" x="891.86" y="184.13" width=".95" height="57.06" transform="translate(-9.02 383.09) rotate(-24.11)"/>
      <rect class="cls-198" x="892.72" y="183.74" width=".95" height="57.06" transform="translate(-8.79 383.41) rotate(-24.11)"/>
      <rect class="cls-35" x="893.58" y="183.36" width=".95" height="57.06" transform="translate(-8.55 383.73) rotate(-24.11)"/>
      <rect class="cls-121" x="894.45" y="182.97" width=".95" height="57.06" transform="translate(-8.32 384.05) rotate(-24.11)"/>
      <rect class="cls-126" x="895.31" y="182.58" width=".95" height="57.06" transform="translate(-8.09 384.37) rotate(-24.11)"/>
      <rect class="cls-105" x="896.17" y="182.2" width=".95" height="57.06" transform="translate(-7.85 384.68) rotate(-24.11)"/>
      <rect class="cls-128" x="897.04" y="181.81" width=".95" height="57.06" transform="translate(-7.62 385) rotate(-24.11)"/>
      <rect class="cls-180" x="897.9" y="181.42" width=".95" height="57.06" transform="translate(-7.39 385.32) rotate(-24.11)"/>
      <rect class="cls-8" x="898.77" y="181.04" width=".95" height="57.06" transform="translate(-7.15 385.64) rotate(-24.11)"/>
      <rect class="cls-90" x="899.63" y="180.65" width=".95" height="57.06" transform="translate(-6.92 385.96) rotate(-24.11)"/>
      <rect class="cls-16" x="900.49" y="180.26" width=".95" height="57.06" transform="translate(-6.69 386.28) rotate(-24.11)"/>
      <rect class="cls-141" x="901.36" y="179.88" width=".95" height="57.06" transform="translate(-6.45 386.6) rotate(-24.11)"/>
      <rect class="cls-123" x="902.22" y="179.49" width=".95" height="57.06" transform="translate(-6.22 386.92) rotate(-24.11)"/>
      <rect class="cls-52" x="903.08" y="179.11" width=".95" height="57.06" transform="translate(-5.99 387.24) rotate(-24.11)"/>
      <rect class="cls-104" x="903.95" y="178.72" width=".95" height="57.06" transform="translate(-5.75 387.56) rotate(-24.11)"/>
      <rect class="cls-158" x="904.81" y="178.33" width=".95" height="57.06" transform="translate(-5.52 387.88) rotate(-24.11)"/>
      <rect class="cls-125" x="905.67" y="177.95" width=".95" height="57.06" transform="translate(-5.29 388.19) rotate(-24.11)"/>
      <rect class="cls-185" x="906.54" y="177.56" width=".95" height="57.06" transform="translate(-5.05 388.51) rotate(-24.11)"/>
      <rect class="cls-179" x="907.4" y="177.17" width=".95" height="57.06" transform="translate(-4.82 388.83) rotate(-24.11)"/>
      <rect class="cls-54" x="908.27" y="176.79" width=".95" height="57.06" transform="translate(-4.59 389.15) rotate(-24.11)"/>
      <rect class="cls-149" x="909.13" y="176.4" width=".95" height="57.06" transform="translate(-4.35 389.47) rotate(-24.11)"/>
      <rect class="cls-6" x="909.99" y="176.01" width=".95" height="57.06" transform="translate(-4.12 389.79) rotate(-24.11)"/>
      <rect class="cls-187" x="910.86" y="175.63" width=".95" height="57.06" transform="translate(-3.89 390.11) rotate(-24.11)"/>
      <rect class="cls-3" x="911.72" y="175.24" width=".95" height="57.06" transform="translate(-3.65 390.43) rotate(-24.11)"/>
      <rect class="cls-49" x="912.58" y="174.85" width=".95" height="57.06" transform="translate(-3.42 390.75) rotate(-24.11)"/>
      <rect class="cls-134" x="913.45" y="174.47" width=".95" height="57.06" transform="translate(-3.19 391.07) rotate(-24.11)"/>
      <rect class="cls-47" x="914.31" y="174.08" width=".95" height="57.06" transform="translate(-2.95 391.39) rotate(-24.11)"/>
      <polygon class="cls-10" points="903.56 176.38 904.43 175.99 926.95 226.3 926.95 228.42 926.87 228.45 903.56 176.38"/>
      <polygon class="cls-24" points="904.43 175.99 905.29 175.6 926.95 223.99 926.95 226.3 904.43 175.99"/>
      <polygon class="cls-147" points="905.29 175.6 906.15 175.22 926.95 221.67 926.95 223.99 905.29 175.6"/>
      <polygon class="cls-194" points="906.15 175.22 907.02 174.83 926.95 219.36 926.95 221.67 906.15 175.22"/>
      <polygon class="cls-21" points="907.02 174.83 907.88 174.44 926.95 217.04 926.95 219.36 907.02 174.83"/>
      <polygon class="cls-124" points="907.88 174.44 908.74 174.06 926.95 214.72 926.95 217.04 907.88 174.44"/>
      <polygon class="cls-5" points="908.74 174.06 909.61 173.67 926.95 212.41 926.95 214.72 908.74 174.06"/>
      <polygon class="cls-55" points="909.61 173.67 910.47 173.28 926.95 210.09 926.95 212.41 909.61 173.67"/>
      <polygon class="cls-84" points="910.47 173.28 911.34 172.9 926.95 207.77 926.95 210.09 910.47 173.28"/>
      <polygon class="cls-26" points="911.34 172.9 912.2 172.51 926.95 205.46 926.95 207.77 911.34 172.9"/>
      <polygon class="cls-107" points="912.2 172.51 913.06 172.12 926.95 203.14 926.95 205.46 912.2 172.51"/>
      <polygon class="cls-69" points="913.06 172.12 913.93 171.74 926.95 200.82 926.95 203.14 913.06 172.12"/>
      <polygon class="cls-157" points="913.93 171.74 914.79 171.35 926.95 198.51 926.95 200.82 913.93 171.74"/>
      <polygon class="cls-157" points="914.79 171.35 922.05 168.1 926.95 168.1 926.95 198.51 914.79 171.35"/>
    </g>
    <rect class="cls-68" x="773.16" y="221.6" width="176.04" height="10" transform="translate(67.13 629.67) rotate(-41.65)"/>
  </g>
  <path class="cls-120" d="M400.84,659.39c-2.83,0-5.73-.44-8.61-1.33-7.65-2.35-14.32-7.61-18.79-14.8-4.47-7.19-6.23-15.5-4.96-23.4,1.31-8.13,5.65-14.87,12.22-18.95,6.57-4.09,14.53-5.01,22.4-2.58,7.65,2.35,14.32,7.61,18.79,14.8h0c9.36,15.05,6.1,34.05-7.26,42.35-4.17,2.59-8.89,3.91-13.79,3.91ZM394.52,606.01c-3.25,0-6.36.86-9.07,2.54-4.33,2.69-7.2,7.22-8.09,12.74-.92,5.76.4,11.87,3.72,17.22s8.23,9.23,13.8,10.95c5.35,1.65,10.67,1.07,15-1.62,9.15-5.69,11.1-19.13,4.37-29.96h0c-3.32-5.35-8.23-9.23-13.8-10.95-2-.61-3.99-.92-5.94-.92Z"/>
  <path class="cls-70" d="M422.13,697.65c-2.63,0-5.33-.16-8.03-.48l1.04-8.94c7.05.82,13.85.41,19.93-1.22l2.33,8.69c-4.81,1.29-9.94,1.94-15.27,1.94ZM391.91,691.27c-6.84-2.83-13.54-6.55-19.88-11.05l5.2-7.34c5.8,4.11,11.9,7.5,18.12,10.08l-3.44,8.32ZM458.22,684.26l-6.17-6.55c4.69-4.42,8.16-9.93,10.31-16.39l8.54,2.84c-2.63,7.88-6.89,14.64-12.68,20.09ZM355.02,665.39l-.1-.1c-5.23-5.56-9.87-11.58-13.79-17.89l7.64-4.75c3.6,5.79,7.86,11.31,12.66,16.42l.11.11-3.55,3.3-2.97,2.91ZM358,662.48h0s.25-.23.25-.23l-.24.23ZM464.78,641.5c-.36-6.53-1.73-13.28-4.07-20.07l8.51-2.93c2.61,7.57,4.14,15.14,4.55,22.5l-8.99.5ZM331.3,626.89c-2.61-7.57-4.15-15.14-4.56-22.5l8.99-.51c.37,6.53,1.74,13.28,4.09,20.07l-8.51,2.94ZM451.75,602.72c-3.62-5.82-7.9-11.38-12.73-16.52l-.08-.09,6.56-6.16.08.08c5.24,5.57,9.89,11.61,13.82,17.94l-7.65,4.75ZM338.11,584.06l-8.54-2.83c2.62-7.89,6.88-14.65,12.65-20.11l6.18,6.54c-4.69,4.42-8.15,9.94-10.29,16.4ZM423.22,572.42c-5.81-4.11-11.91-7.49-18.13-10.07l3.44-8.32c6.85,2.83,13.54,6.54,19.89,11.04l-5.2,7.35ZM365.37,558.33l-2.34-8.69c7.17-1.93,15.11-2.44,23.3-1.49l-1.04,8.94c-7.07-.82-13.85-.4-19.93,1.24Z"/>
  <path class="cls-129" d="M468.04,750.67l-.75-8.97c10.07-.84,19.55-3.09,28.18-6.67l3.45,8.31c-9.49,3.94-19.88,6.41-30.88,7.33ZM436.58,749.3c-9.99-1.62-20.16-4.35-30.24-8.11l3.15-8.43c9.53,3.56,19.13,6.13,28.53,7.66l-1.44,8.88ZM378.16,727.83c-8.84-5.12-17.47-11.04-25.67-17.6l5.62-7.03c7.84,6.28,16.1,11.94,24.55,16.83l-4.51,7.79ZM525.75,726.05l-6.17-6.55c6.96-6.56,12.67-14.34,16.96-23.13l8.09,3.95c-4.77,9.77-11.12,18.43-18.88,25.73ZM329.66,689.13l-.05-.05c-7.12-7.57-13.72-15.65-19.62-24l7.35-5.19c5.65,8.01,11.99,15.76,18.83,23.04l-3.24,3.13-3.29,3.07ZM553.82,669.94l-8.91-1.29c.77-5.29,1.16-10.81,1.16-16.41,0-4.21-.22-8.55-.66-12.89l8.96-.9c.46,4.63.7,9.27.7,13.79,0,6.03-.42,11.99-1.25,17.7ZM293.98,638.39c-4.75-9.48-8.66-19.22-11.63-28.94l8.61-2.63c2.83,9.24,6.55,18.51,11.07,27.54l-8.05,4.03ZM539.5,610.4c-2.82-9.24-6.54-18.51-11.06-27.55l8.05-4.03c4.75,9.49,8.66,19.23,11.62,28.94l-8.61,2.63ZM276.09,578.77c-.47-4.66-.71-9.32-.71-13.85,0-6.01.42-11.94,1.24-17.64l8.91,1.29c-.76,5.27-1.15,10.77-1.15,16.35,0,4.23.22,8.59.66,12.95l-8.96.9ZM513.13,557.32c-5.67-8.03-12.01-15.8-18.87-23.09l6.46-6.27.14.15c7.1,7.55,13.72,15.65,19.63,24.03l-7.36,5.19ZM293.88,520.84l-8.09-3.94c4.76-9.78,11.11-18.44,18.86-25.75l6.17,6.55c-6.96,6.56-12.66,14.35-16.95,23.14ZM472.29,513.92c-7.84-6.28-16.11-11.94-24.56-16.83l4.51-7.79c8.84,5.11,17.48,11.03,25.67,17.59l-5.62,7.03ZM420.9,484.38c-9.53-3.55-19.13-6.12-28.53-7.65l1.44-8.88c9.99,1.61,20.16,4.34,30.24,8.1l-3.14,8.43ZM334.93,482.15l-3.46-8.31c9.49-3.95,19.88-6.42,30.87-7.34l.76,8.97c-10.07.85-19.54,3.1-28.17,6.69Z"/>
  <path class="cls-65" d="M510.66,787.11l-.46-9.2c10.03-.52,19.76-2.01,28.91-4.43l2.31,8.92c-9.76,2.58-20.11,4.17-30.76,4.72ZM570.5,770.86l-4.34-8.11c8.55-4.67,16.44-10.43,23.46-17.1l.1-.09,2.26,2.57,3.92,4.2-.03.03c-7.6,7.22-16.13,13.44-25.37,18.49ZM420.33,769.64c-9.29-3.93-18.58-8.52-27.61-13.65l4.47-8.04c8.73,4.96,17.71,9.39,26.67,13.19l-3.52,8.5ZM366.79,739.35c-8.24-5.92-16.33-12.39-24.06-19.23l6.01-6.93c7.5,6.64,15.35,12.91,23.34,18.66l-5.29,7.51ZM615.73,727.85l-7.74-4.87c5.02-8.15,9.13-17.11,12.23-26.65l8.67,2.87c-3.32,10.23-7.75,19.87-13.15,28.64ZM320.68,698.61l-.14-.15c-6.93-7.44-13.61-15.35-19.79-23.42l7.21-5.64c6,7.84,12.49,15.52,19.29,22.82l-6.58,6.39ZM635.42,668.46l-9.06-1.03c.67-6.04,1.01-12.3,1.01-18.62,0-3.64-.11-7.37-.34-11.09l9.1-.56c.24,3.91.36,7.83.35,11.66,0,6.66-.36,13.26-1.07,19.64ZM283.22,649.6c-5.46-8.84-10.46-17.98-14.86-27.15l8.21-4.02c4.26,8.88,9.1,17.73,14.39,26.29l-7.74,4.88ZM623.03,608.15c-1.99-9.54-4.67-19.24-7.98-28.83l8.61-3.03c3.44,9.96,6.23,20.04,8.3,29.97l-8.92,1.9ZM256.55,593.77c-3.44-9.96-6.23-20.04-8.3-29.97l8.92-1.9c1.99,9.54,4.68,19.24,7.99,28.83l-8.61,3.04ZM603.64,551.61c-4.26-8.88-9.09-17.73-14.38-26.3l7.74-4.88c5.46,8.84,10.45,17.98,14.85,27.16l-8.21,4.02ZM244.05,532.89c-.24-3.93-.36-7.88-.36-11.74,0-6.62.36-13.2,1.06-19.56l9.06,1.02c-.66,6.02-1,12.25-1,18.54,0,3.67.12,7.43.34,11.17l-9.1.56ZM572.26,500.63c-6.02-7.86-12.52-15.56-19.34-22.89l-.1-.1,6.62-6.34.13.14c7.01,7.53,13.71,15.46,19.9,23.56l-7.21,5.64ZM259.93,473.72l-8.67-2.87c3.32-10.23,7.74-19.87,13.13-28.65l7.75,4.86c-5.01,8.15-9.12,17.12-12.21,26.65ZM531.38,456.73c-7.5-6.63-15.35-12.91-23.35-18.65l5.29-7.51c8.24,5.92,16.34,12.39,24.07,19.23l-6.01,6.94ZM290.56,424.32l-6.35-6.62.13-.12c7.54-7.17,16.05-13.38,25.26-18.42l4.35,8.1c-8.52,4.67-16.39,10.41-23.39,17.07ZM482.93,421.98c-8.74-4.96-17.71-9.39-26.67-13.18l3.52-8.5c9.28,3.92,18.58,8.51,27.62,13.64l-4.47,8.04ZM428.26,399.01c-9.72-2.7-19.46-4.66-28.97-5.83l1.1-9.15c9.95,1.22,20.13,3.27,30.28,6.09l-2.41,8.89ZM341,396.52l-2.32-8.91c9.76-2.59,20.1-4.18,30.76-4.74l.47,9.2c-10.03.52-19.76,2.02-28.91,4.45Z"/>
  <path class="cls-169" d="M547.55,799.03h-.02c-4.04,0-8.17-.12-12.27-.35l.51-8.99c3.93.22,7.89.33,11.76.33h.02c5.84,0,11.67-.26,17.33-.76l.8,8.96c-5.92.53-12.03.8-18.13.8ZM505.13,795.02c-9.71-1.8-19.61-4.22-29.42-7.2l2.62-8.61c9.49,2.88,19.05,5.23,28.44,6.96l-1.64,8.85ZM595.75,793.04l-2.28-8.71c9.49-2.49,18.62-5.82,27.15-9.89l3.88,8.12c-9.04,4.32-18.72,7.85-28.75,10.48ZM459.64,783.88c-9.14-3.83-18.46-7.12-27.42-11.9l3.22-7.52c8.71,4.64,18.79,7.4,27.67,11.12l-3.47,8.3ZM650.68,766.6l-5.45-7.16c3.8-2.89,7.49-6.02,10.97-9.29,3.5-3.3,6.87-6.81,10.01-10.45l6.82,5.88c-3.34,3.87-6.92,7.62-10.66,11.13-3.71,3.49-7.64,6.82-11.68,9.9ZM690.54,720.41l-7.87-4.37c4.59-8.27,8.46-17.19,11.52-26.51l8.55,2.81c-3.24,9.86-7.34,19.3-12.2,28.07ZM346.34,712.34c-7.36-6.71-14.59-13.82-21.48-21.14l6.55-6.17c6.73,7.15,13.79,14.1,20.99,20.66l-6.06,6.65ZM709.75,662.64l-8.9-1.34c1.41-9.35,2.15-19.12,2.2-29.04l9,.04c-.05,10.35-.82,20.56-2.3,30.34ZM701.3,603.1c-1.16-9.48-2.92-19.17-5.22-28.81l8.75-2.09c2.38,9.97,4.2,19.99,5.4,29.8l-8.93,1.1ZM687.81,546.15c-3.17-9.09-6.86-18.26-10.97-27.25l8.19-3.74c4.22,9.24,8.02,18.67,11.28,28.02l-8.5,2.96ZM232.15,504.96c-1.22-9.91-1.84-19.78-1.84-29.36v-.94s9,.04,9,.04v.9c0,9.21.59,18.71,1.77,28.26l-8.93,1.1ZM663.46,492.72c-4.78-8.43-10.02-16.84-15.56-24.97l7.44-5.07c5.68,8.34,11.05,16.95,15.95,25.6l-7.83,4.44ZM241.5,445.66l-8.9-1.34c1.54-10.27,3.9-20.27,6.99-29.71l8.55,2.8c-2.94,8.97-5.17,18.47-6.64,28.25ZM630.36,444.11c-6.1-7.58-12.6-15.05-19.34-22.21l-.13-.14,6.54-6.19.2.21c6.84,7.28,13.5,14.92,19.75,22.68l-7.01,5.64ZM589.89,401.11c-7.27-6.62-14.85-12.99-22.53-18.94l5.51-7.12c7.87,6.1,15.64,12.62,23.08,19.4l-6.06,6.66ZM259.65,390.9l-7.87-4.36c4.99-9.02,10.88-17.48,17.5-25.17l6.82,5.87c-6.22,7.22-11.75,15.18-16.45,23.66ZM543.38,365.12c-8.26-5.37-16.78-10.4-25.32-14.94l4.23-7.94c8.76,4.67,17.51,9.83,25.99,15.34l-4.9,7.55ZM297.06,347.48l-5.46-7.16c8.07-6.16,16.88-11.53,26.17-15.98l3.89,8.12c-8.74,4.18-17.02,9.24-24.6,15.02ZM491.53,337.58c-9.13-3.82-18.41-7.17-27.59-9.96l2.62-8.61c9.47,2.87,19.04,6.33,28.45,10.26l-3.47,8.3ZM348.8,322.55l-2.29-8.7c9.61-2.52,19.72-4.28,30.06-5.21l.81,8.96c-9.84.89-19.46,2.55-28.58,4.95ZM435.5,320.67c-9.76-1.8-19.51-2.98-29-3.51l.5-8.99c9.86.55,20,1.78,30.13,3.65l-1.63,8.85Z"/>
  <path class="cls-176" d="M651.25,774.33l3.8,8.16M681.71,767.43l-5.04-7.46c8-5.4,15.62-11.5,22.67-18.12l.18-.17,6.05,6.66-3-3.29,3.2,3.1-.18.17c-7.42,6.98-15.46,13.41-23.89,19.1ZM726.18,725.58l-7.14-5.48c5.88-7.66,11.22-15.9,15.88-24.5l7.91,4.29c-4.88,9.01-10.48,17.66-16.65,25.69ZM755.31,671.96l-8.47-3.05c3.25-9.04,5.93-18.52,7.95-28.19l8.81,1.84c-2.11,10.08-4.9,19.97-8.29,29.4ZM767.9,612.36l-8.97-.7c.5-6.35.75-12.86.75-19.34,0-3.32-.07-6.71-.2-10.06l8.99-.35c.13,3.47.2,6.97.2,10.41,0,6.72-.26,13.47-.78,20.05ZM756.73,552.94c-1.41-9.58-3.36-19.3-5.77-28.91l8.73-2.2c2.49,9.9,4.49,19.92,5.95,29.79l-8.9,1.31ZM742.41,495.78c-3.25-9.17-6.98-18.38-11.1-27.37l8.18-3.75c4.23,9.23,8.06,18.69,11.4,28.11l-8.48,3ZM717.87,442.1c-4.81-8.5-10.05-16.95-15.6-25.11l7.44-5.06c5.69,8.37,11.07,17.03,15.99,25.74l-7.83,4.43ZM684.68,393.21c-6.13-7.63-12.66-15.14-19.42-22.32l-.14-.15,6.52-6.2.19.2c6.9,7.33,13.58,15.02,19.86,22.83l-7.02,5.64ZM644.01,350c-7.3-6.63-14.92-13.02-22.66-19l5.5-7.12c7.93,6.12,15.74,12.67,23.22,19.46l-6.05,6.66ZM297.07,314.18l-6.17-6.55.1-.1c7.41-6.97,15.42-13.37,23.81-19.05l5.04,7.46c-8,5.41-15.62,11.51-22.67,18.14l-.11.1ZM597.23,313.9c-8.29-5.37-16.85-10.43-25.45-15.01l4.24-7.94c8.82,4.71,17.61,9.89,26.11,15.4l-4.9,7.55ZM545.13,286.15c-9.11-3.86-18.42-7.31-27.68-10.24l2.72-8.58c9.52,3.02,19.1,6.56,28.47,10.53l-3.51,8.29ZM345.26,281.56l-3.8-8.16c9.12-4.25,18.76-7.88,28.63-10.77l2.53,8.64c-9.44,2.77-18.64,6.23-27.36,10.29ZM488.95,268.4c-9.7-2.04-19.49-3.56-29.1-4.51l.89-8.96c9.92.99,20.04,2.56,30.05,4.66l-1.85,8.81ZM401.23,265.03l-1.31-8.9c9.88-1.45,20.11-2.28,30.4-2.46l.16,9c-9.9.18-19.74.97-29.25,2.37Z"/>
  <path class="cls-119" d="M796.19,649.19l-8.1-3.24c4.56-11.79,8.25-24.2,10.95-36.9l8.51,1.87c-2.81,13.16-6.63,26.04-11.36,38.27ZM812.94,571.37l-8.69-.57c.37-5.81.55-11.75.55-17.66,0-6.94-.26-14.01-.77-21.01l8.68-.65c.52,7.22.79,14.51.79,21.66,0,6.1-.19,12.23-.57,18.23ZM798.8,493.77c-2.51-12.5-5.83-25.09-9.86-37.43l8.26-2.79c4.15,12.67,7.56,25.61,10.13,38.45l-8.53,1.77ZM774.83,420.31c-5.32-11.62-11.36-23.13-17.98-34.22l7.44-4.59c6.78,11.36,12.98,23.17,18.43,35.08l-7.89,3.73ZM735.34,354.03c-7.66-10.21-15.97-20.17-24.7-29.61l-.15-.16,6.32-6.08.19.2c8.92,9.64,17.42,19.84,25.26,30.29l-6.92,5.37ZM682.92,297.38c-9.65-8.47-19.8-16.47-30.17-23.78l4.96-7.28c10.62,7.49,21.02,15.68,30.9,24.35l-5.69,6.7ZM620.24,253.28c-11.23-6.18-22.84-11.73-34.51-16.5l3.24-8.21c11.98,4.89,23.89,10.59,35.41,16.92l-4.14,7.78ZM379.67,233.13l-2.62-7.92c11.48-6.18,16.31-7.01,28.88-11.17l2.69,8.42c-12.09,4-17.91,4.72-28.94,10.67ZM549.59,224.51c-12.37-3.37-24.92-5.94-37.32-7.64l1.16-8.77c12.77,1.75,25.69,4.39,38.41,7.86l-2.25,8.55ZM436.48,217.3l-1.33-8.75c12.74-1.99,25.91-3.03,39.15-3.08l.03,8.85c-12.81.05-25.54,1.05-37.85,2.98Z"/>
  <path class="cls-34" d="M726.38,746.82l-4.92-7.17c10.4-7.21,20.36-15.3,29.61-24.05l.17-.16,2.86,3.28,3.05,3.09-.09.09c-9.58,9.06-19.9,17.45-30.68,24.92ZM338.75,681.55l.11.12-6.33,5.96-.05-.05M822.41,623.76l-8.09-3.12c4.51-11.84,8.24-24.2,11.07-36.75l8.45,1.93c-2.92,12.95-6.77,25.71-11.43,37.94ZM839.89,546.68l-8.63-.75c.72-8.3,1.08-16.78,1.08-25.2,0-4.38-.1-8.84-.29-13.25l8.66-.39c.2,4.54.3,9.12.3,13.63,0,8.67-.37,17.4-1.11,25.95ZM827.92,469.22c-2.15-12.55-5.11-25.16-8.81-37.47l8.3-2.52c3.79,12.65,6.84,25.61,9.05,38.51l-8.54,1.48ZM805.88,395.6c-5.09-11.7-10.93-23.25-17.38-34.35l7.48-4.4c6.61,11.38,12.62,23.24,17.84,35.25l-7.94,3.49ZM767.3,329.14c-7.6-10.2-15.91-20.13-24.67-29.5l-.21-.22,6.32-5.97.21.22c8.98,9.6,17.49,19.78,25.29,30.24l-6.94,5.23ZM714.62,272.88c-9.75-8.31-20.04-16.12-30.59-23.21l4.81-7.24c10.82,7.27,21.38,15.28,31.38,23.81l-5.61,6.65ZM651.01,230.17c-11.37-5.85-23.17-11.05-35.06-15.46l3-8.17c12.21,4.53,24.33,9.87,36.01,15.87l-3.94,7.76ZM579.3,203.61c-12.45-2.95-25.14-5.12-37.71-6.45l.91-8.67c12.93,1.37,25.98,3.61,38.79,6.64l-1.99,8.48ZM465.33,199.21l-1.4-8.6c12.84-2.12,26.03-3.36,39.23-3.71l.22,8.71c-12.8.33-25.6,1.54-38.05,3.59Z"/>
  <path class="cls-2" d="M761.23,718.45l-5.54-6.74c4.82-3.95,9.57-8.12,14.13-12.4,4.57-4.3,9.05-8.79,13.3-13.37l6.4,5.93c-4.38,4.72-9,9.36-13.72,13.79-4.7,4.41-9.6,8.71-14.57,12.79ZM813.91,661.72l-7.16-5c7.16-10.22,13.69-21.05,19.4-32.19l7.77,3.98c-5.89,11.49-12.63,22.67-20.02,33.21ZM849.24,592.88l-8.24-2.9c4.14-11.74,7.54-23.93,10.12-36.22l8.55,1.79c-2.66,12.67-6.17,25.23-10.43,37.33ZM865.17,517.2l-8.71-.68c.61-7.73.91-15.61.91-23.42,0-4.71-.11-9.5-.33-14.22l8.72-.41c.23,4.86.34,9.78.34,14.63,0,8.03-.32,16.14-.94,24.1ZM852.97,441.43c-2.11-12.31-4.99-24.66-8.58-36.69l8.37-2.49c3.69,12.36,6.65,25.05,8.82,37.71l-8.61,1.47ZM831.49,369.33c-4.97-11.47-10.68-22.79-16.99-33.66l7.56-4.38c6.48,11.16,12.35,22.79,17.45,34.57l-8.02,3.46ZM278.7,346.66l-8.24-2.89c4.29-12.2,5.18-12.44,11.04-23.88l7.78,3.97c-5.68,11.09-6.41,10.96-10.58,22.79ZM793.69,304.22c-7.48-10.01-15.65-19.73-24.28-28.89l-.19-.2,6.33-6.01.23.24c8.84,9.39,17.23,19.36,24.9,29.63l-7,5.22ZM308.66,291.67l-7.16-5c7.39-10.55,15.58-20.7,24.37-30.17l6.41,5.93c-8.51,9.17-16.46,19.01-23.62,29.24ZM741.82,249.18c-9.61-8.11-19.76-15.72-30.18-22.63l4.83-7.27c10.7,7.09,21.12,14.91,30.99,23.23l-5.64,6.66ZM359.68,236.65l-5.54-6.74c10-8.19,20.64-15.76,31.64-22.5l4.56,7.44c-10.66,6.52-20.97,13.86-30.66,21.8ZM679.05,207.6c-11.2-5.67-22.84-10.71-34.59-15l3-8.19c12.07,4.4,24.03,9.59,35.54,15.41l-3.95,7.78ZM423.71,197.45l-3.5-7.99c11.78-5.15,24.08-9.56,36.54-13.11l2.39,8.39c-12.08,3.44-24,7.72-35.43,12.71ZM608.33,181.83c-12.24-2.86-24.74-4.99-37.16-6.33l.94-8.67c12.77,1.38,25.63,3.57,38.22,6.51l-1.99,8.49ZM495.96,176.85l-1.27-8.63c12.7-1.86,25.72-2.92,38.67-3.15l.15,8.72c-12.58.22-25.22,1.25-37.55,3.06Z"/>
  <g>
    <g class="cls-82">
      <rect class="cls-100" x="186.17" y="626.22" width="4.79" height="177.76"/>
      <rect class="cls-30" x="190.97" y="626.22" width="4.79" height="177.76"/>
      <rect class="cls-174" x="195.76" y="626.22" width="4.79" height="177.76"/>
      <rect class="cls-135" x="200.55" y="626.22" width="4.79" height="177.76"/>
      <rect class="cls-45" x="205.35" y="626.22" width="4.79" height="177.76"/>
      <rect class="cls-122" x="210.14" y="626.22" width="4.79" height="177.76"/>
      <rect class="cls-182" x="214.93" y="626.22" width="4.79" height="177.76"/>
      <rect class="cls-22" x="219.73" y="626.22" width="4.79" height="177.76"/>
      <rect class="cls-168" x="224.52" y="626.22" width="4.79" height="177.76"/>
      <rect class="cls-144" x="229.31" y="626.22" width="4.79" height="177.76"/>
      <rect class="cls-175" x="234.11" y="626.22" width="4.79" height="177.76"/>
      <rect class="cls-62" x="238.9" y="626.22" width="4.79" height="177.76"/>
      <rect class="cls-66" x="243.69" y="626.22" width="4.79" height="177.76"/>
      <rect class="cls-136" x="248.49" y="626.22" width="4.79" height="177.76"/>
      <rect class="cls-161" x="253.28" y="626.22" width="4.79" height="177.76"/>
      <rect class="cls-117" x="258.08" y="626.22" width="4.79" height="177.76"/>
      <rect class="cls-165" x="262.87" y="626.22" width="4.79" height="177.76"/>
      <rect class="cls-36" x="267.66" y="626.22" width="4.79" height="177.76"/>
      <rect class="cls-51" x="272.46" y="626.22" width="4.79" height="177.76"/>
      <rect class="cls-88" x="277.25" y="626.22" width="4.79" height="177.76"/>
      <rect class="cls-73" x="282.04" y="626.22" width="4.79" height="177.76"/>
      <rect class="cls-155" x="286.84" y="626.22" width="4.79" height="177.76"/>
      <rect class="cls-87" x="291.63" y="626.22" width="4.79" height="177.76"/>
      <rect class="cls-181" x="296.42" y="626.22" width="4.79" height="177.76"/>
      <rect class="cls-9" x="301.22" y="626.22" width="4.79" height="177.76"/>
      <rect class="cls-195" x="306.01" y="626.22" width="4.79" height="177.76"/>
      <rect class="cls-190" x="310.8" y="626.22" width="4.79" height="177.76"/>
      <rect class="cls-111" x="315.6" y="626.22" width="4.79" height="177.76"/>
      <rect class="cls-173" x="320.39" y="626.22" width="4.79" height="177.76"/>
      <rect class="cls-85" x="325.19" y="626.22" width="4.79" height="177.76"/>
      <rect class="cls-23" x="329.98" y="626.22" width="4.79" height="177.76"/>
      <rect class="cls-114" x="334.77" y="626.22" width="4.79" height="177.76"/>
      <rect class="cls-146" x="339.57" y="626.22" width="4.79" height="177.76"/>
      <rect class="cls-186" x="344.36" y="626.22" width="4.79" height="177.76"/>
      <rect class="cls-33" x="349.15" y="626.22" width="4.79" height="177.76"/>
      <rect class="cls-189" x="353.95" y="626.22" width="4.79" height="177.76"/>
      <rect class="cls-17" x="358.74" y="626.22" width="4.79" height="177.76"/>
      <rect class="cls-12" x="363.53" y="626.22" width="4.79" height="177.76"/>
      <rect class="cls-76" x="368.33" y="626.22" width="4.79" height="177.76"/>
      <rect class="cls-130" x="373.12" y="626.22" width="4.79" height="177.76"/>
      <rect class="cls-20" x="377.91" y="626.22" width="4.79" height="177.76"/>
      <rect class="cls-150" x="382.71" y="626.22" width="4.79" height="177.76"/>
      <rect class="cls-153" x="387.5" y="626.22" width="4.79" height="177.76"/>
      <rect class="cls-159" x="392.3" y="626.22" width="4.79" height="177.76"/>
    </g>
    <path class="cls-98" d="M189.4,807.81l1.57,4.55s2.95,10.65-7,16.7c-7.59,4.62-30.61,14.49-40.99,18.05-3.23,1.11-5.3,1.15-6.14-1.05s.04-4.73.04-4.73c0,0,16.72-37.71,28.09-42.14,11.36-4.42,17.04,1.94,17.04,1.94l.94-.98,210.92-177.76,6.45,7.66-210.92,177.76Z"/>
  </g>
  <path class="cls-139" d="M250.05,845.17c-15.13,0-33.37-8.85-49.7-25.17l6.36-6.37c20.42,20.4,44.25,28.11,56.67,18.34,5.98-4.7,8.76-13.05,8.02-23.79-.1-1.41-.41-3.03-1.16-4.33-6.33-10.86-26.16-29-26.16-29,0,0,11.88-6.93,10.6-8.72-1.09-1.53-2.22-3.05-3.4-4.55-21.05-26.77-51.08-39.76-65.56-28.37-11.39,8.96-10.12,32.65,3.02,56.32l-7.87,4.37c-15.79-28.45-16.08-55.68-.71-67.76,18.95-14.9,53.3-1.78,78.2,29.88,1.3,1.65,2.55,3.32,3.74,5.01.82,1.16,14.7-10.93,14.7-10.93,0,0,.25,32.85,1.1,43.35.26,3.16,1.49,6.09,1.93,9.07,2.39,16.16-1.47,29.13-10.88,36.52-5.25,4.13-11.72,6.12-18.9,6.12Z"/>
</svg>